<svg width="28" height="28" viewBox="0 0 28 28" fill="none" xmlns="http://www.w3.org/2000/svg">
<path d="M24.15 8.98333L11.3167 21.8167C11.0833 22.05 10.85 22.1667 10.5 22.1667C10.15 22.1667 9.91667 22.05 9.68333 21.8167L3.85 15.9833C3.38333 15.5167 3.38333 14.8167 3.85 14.35C4.31667 13.8833 5.01667 13.8833 5.48333 14.35L10.5 19.3667L22.5167 7.35C22.9833 6.88333 23.6833 6.88333 24.15 7.35C24.6167 7.81667 24.6167 8.51667 24.15 8.98333Z" fill="white"/>
<mask id="mask0_97_4644" style="mask-type:alpha" maskUnits="userSpaceOnUse" x="3" y="7" width="22" height="16">
<path d="M24.15 8.98333L11.3167 21.8167C11.0833 22.05 10.85 22.1667 10.5 22.1667C10.15 22.1667 9.91667 22.05 9.68333 21.8167L3.85 15.9833C3.38333 15.5167 3.38333 14.8167 3.85 14.35C4.31667 13.8833 5.01667 13.8833 5.48333 14.35L10.5 19.3667L22.5167 7.35C22.9833 6.88333 23.6833 6.88333 24.15 7.35C24.6167 7.81667 24.6167 8.51667 24.15 8.98333Z" fill="white"/>
</mask>
<g mask="url(#mask0_97_4644)">
<rect width="28" height="28" fill="white"/>
</g>
</svg>
