<svg width="34" height="34" viewBox="0 0 34 34" fill="none" xmlns="http://www.w3.org/2000/svg">
<mask id="mask0_151_6971" style="mask-type:alpha" maskUnits="userSpaceOnUse" x="7" y="7" width="20" height="20">
<path d="M26.4904 24.5083C27.057 25.0749 27.057 25.9249 26.4904 26.4916C26.207 26.7749 25.9237 26.9166 25.4987 26.9166C25.0737 26.9166 24.7904 26.7749 24.507 26.4916L16.9987 18.9833L9.49036 26.4916C9.20703 26.7749 8.9237 26.9166 8.4987 26.9166C8.0737 26.9166 7.79036 26.7749 7.50703 26.4916C6.94036 25.9249 6.94036 25.0749 7.50703 24.5083L15.0154 16.9999L7.50703 9.49159C6.94036 8.92492 6.94036 8.07492 7.50703 7.50825C8.0737 6.94159 8.9237 6.94159 9.49036 7.50825L16.9987 15.0166L24.507 7.50825C25.0737 6.94159 25.9237 6.94159 26.4904 7.50825C27.057 8.07492 27.057 8.92492 26.4904 9.49159L18.982 16.9999L26.4904 24.5083Z" fill="white"/>
</mask>
<g mask="url(#mask0_151_6971)">
<rect width="34" height="34" fill="#E0E0E0"/>
</g>
</svg>
