<svg width="36" height="36" viewBox="0 0 36 36" fill="none" xmlns="http://www.w3.org/2000/svg">
<mask id="mask0_117_3731" style="mask-type:alpha" maskUnits="userSpaceOnUse" x="1" y="1" width="34" height="34">
<path fill-rule="evenodd" clip-rule="evenodd" d="M34.05 10.05L19.05 25.05C18.75 25.35 18.45 25.5 18 25.5H12C11.1 25.5 10.5 24.9 10.5 24V18C10.5 17.55 10.65 17.25 10.95 16.95L25.95 1.95C26.55 1.35 27.45 1.35 28.05 1.95L34.05 7.95C34.65 8.55 34.65 9.45 34.05 10.05ZM31.5 22.05V30C31.5 32.55 29.55 34.5 27 34.5H6C3.45 34.5 1.5 32.55 1.5 30V9C1.5 6.45 3.45 4.5 6 4.5H13.95C14.85 4.5 15.45 5.1 15.45 6C15.45 6.9 14.85 7.5 13.95 7.5H6C5.1 7.5 4.5 8.1 4.5 9V30C4.5 30.9 5.1 31.5 6 31.5H27C27.9 31.5 28.5 30.9 28.5 30V22.05C28.5 21.15 29.1 20.55 30 20.55C30.9 20.55 31.5 21.15 31.5 22.05ZM27 5.1L30.9 9L17.4 22.5H13.5V18.6L27 5.1Z" fill="white"/>
</mask>
<g mask="url(#mask0_117_3731)">
<rect width="36" height="36" fill="#761CBD"/>
</g>
</svg>
