<svg width="34" height="34" viewBox="0 0 34 34" fill="none" xmlns="http://www.w3.org/2000/svg">
<mask id="mask0_97_5805" style="mask-type:alpha" maskUnits="userSpaceOnUse" x="0" y="2" width="35" height="30">
<path fill-rule="evenodd" clip-rule="evenodd" d="M4.24996 4.24992V14.1666C4.24996 15.0166 4.81663 15.5833 5.66663 15.5833C6.51663 15.5833 7.08329 15.0166 7.08329 14.1666V4.24992C7.08329 3.39992 6.51663 2.83325 5.66663 2.83325C4.81663 2.83325 4.24996 3.39992 4.24996 4.24992ZM15.5832 16.9998C15.5832 16.1498 16.1499 15.5831 16.9999 15.5831C17.8499 15.5831 18.4165 16.1498 18.4165 16.9998V29.7498C18.4165 30.5998 17.8499 31.1665 16.9999 31.1665C16.1499 31.1665 15.5832 30.5998 15.5832 29.7498V16.9998ZM28.3335 18.4166C29.1835 18.4166 29.7501 17.8499 29.7501 16.9999V4.24992C29.7501 3.39992 29.1835 2.83325 28.3335 2.83325C27.4835 2.83325 26.9168 3.39992 26.9168 4.24992V16.9999C26.9168 17.8499 27.4835 18.4166 28.3335 18.4166ZM1.41667 18.4164H9.91667C10.7667 18.4164 11.3333 18.9831 11.3333 19.8331C11.3333 20.6831 10.7667 21.2498 9.91667 21.2498H7.08333V29.7498C7.08333 30.5998 6.51667 31.1664 5.66667 31.1664C4.81667 31.1664 4.25 30.5998 4.25 29.7498V21.2498H1.41667C0.566667 21.2498 0 20.6831 0 19.8331C0 18.9831 0.566667 18.4164 1.41667 18.4164ZM21.2499 9.91659H18.4166V4.24992C18.4166 3.39992 17.8499 2.83325 16.9999 2.83325C16.1499 2.83325 15.5832 3.39992 15.5832 4.24992V9.91659H12.7499C11.8999 9.91659 11.3332 10.4833 11.3332 11.3333C11.3332 12.1833 11.8999 12.7499 12.7499 12.7499H21.2499C22.0999 12.7499 22.6666 12.1833 22.6666 11.3333C22.6666 10.4833 22.0999 9.91659 21.2499 9.91659ZM24.0835 21.2497H32.5835C33.4335 21.2497 34.0002 21.8164 34.0002 22.6664C34.0002 23.5164 33.4335 24.0831 32.5835 24.0831H29.7502V29.7498C29.7502 30.5998 29.1835 31.1664 28.3335 31.1664C27.4835 31.1664 26.9169 30.5998 26.9169 29.7498V24.0831H24.0835C23.2335 24.0831 22.6669 23.5164 22.6669 22.6664C22.6669 21.8164 23.2335 21.2497 24.0835 21.2497Z" fill="white"/>
</mask>
<g mask="url(#mask0_97_5805)">
<rect width="34" height="34" fill="#606060"/>
</g>
</svg>
