<svg width="36" height="36" viewBox="0 0 36 36" fill="none" xmlns="http://www.w3.org/2000/svg">
<path d="M34.4439 13.3683C34.2945 12.7692 33.846 12.4697 33.248 12.32L23.6806 10.9722L19.3454 2.28623C18.8969 1.23792 17.1031 1.23792 16.6546 2.28623L12.3194 10.8224L2.90147 12.32C2.30351 12.32 1.85504 12.7692 1.55606 13.3683C1.40657 13.9673 1.55606 14.5663 2.00453 14.8658L8.88109 21.6049L7.23669 31.1894C7.0872 31.7884 7.38618 32.3875 7.83465 32.687C8.28313 32.9865 8.88109 33.1363 9.47905 32.8367L18 28.344L26.521 32.8367C26.8199 32.8367 26.9694 32.8367 27.2684 32.8367C27.5674 32.8367 27.8664 32.687 28.1653 32.5372C28.6138 32.2377 28.9128 31.6387 28.7633 31.0396L27.1189 21.4552L33.9955 14.7161C34.4439 14.4166 34.5934 13.8175 34.4439 13.3683Z" fill="#FF8A00"/>
<mask id="mask0_160_4863" style="mask-type:alpha" maskUnits="userSpaceOnUse" x="1" y="1" width="34" height="32">
<path d="M34.4439 13.3683C34.2945 12.7692 33.846 12.4697 33.248 12.32L23.6806 10.9722L19.3454 2.28623C18.8969 1.23792 17.1031 1.23792 16.6546 2.28623L12.3194 10.8224L2.90147 12.32C2.30351 12.32 1.85504 12.7692 1.55606 13.3683C1.40657 13.9673 1.55606 14.5663 2.00453 14.8658L8.88109 21.6049L7.23669 31.1894C7.0872 31.7884 7.38618 32.3875 7.83465 32.687C8.28313 32.9865 8.88109 33.1363 9.47905 32.8367L18 28.344L26.521 32.8367C26.8199 32.8367 26.9694 32.8367 27.2684 32.8367C27.5674 32.8367 27.8664 32.687 28.1653 32.5372C28.6138 32.2377 28.9128 31.6387 28.7633 31.0396L27.1189 21.4552L33.9955 14.7161C34.4439 14.4166 34.5934 13.8175 34.4439 13.3683Z" fill="white"/>
</mask>
<g mask="url(#mask0_160_4863)">
<rect width="36" height="36" fill="#FF8A00"/>
</g>
</svg>
