<svg width="36" height="36" viewBox="0 0 36 36" fill="none" xmlns="http://www.w3.org/2000/svg">
<mask id="mask0_96_2913" style="mask-type:alpha" maskUnits="userSpaceOnUse" x="1" y="1" width="34" height="34">
<path fill-rule="evenodd" clip-rule="evenodd" d="M33.5506 13.8C32.7911 12.9 31.7278 12.15 30.5127 12H29.7532H22.7658V7.5C22.7658 4.2 20.0316 1.5 16.6899 1.5C16.0823 1.5 15.4747 1.8 15.3228 2.4L9.70253 15H6.05696C3.47468 15 1.5 16.95 1.5 19.5V30C1.5 32.55 3.47468 34.5 6.05696 34.5H27.7785C30.057 34.5 31.8797 32.85 32.3354 30.75L34.462 17.25C34.6139 16.05 34.3101 14.85 33.5506 13.8ZM9.09494 31.5H6.05696C5.14557 31.5 4.53797 30.9 4.53797 30V19.5C4.53797 18.6 5.14557 18 6.05696 18H9.09494V31.5ZM27.7785 31.5C28.538 31.5 29.1456 31.05 29.2975 30.3L31.576 16.65C31.576 16.35 31.576 15.9 31.2722 15.6C30.9684 15.3 30.6646 15 30.2089 15H29.9051H21.2468C20.3354 15 19.7278 14.4 19.7278 13.5V7.5C19.7278 6.15 18.8165 5.1 17.6013 4.65L12.1329 16.8V31.5H27.7785Z" fill="white"/>
</mask>
<g mask="url(#mask0_96_2913)">
<rect width="36" height="36" fill="#761CBD"/>
</g>
</svg>
