<svg width="40" height="40" viewBox="0 0 40 40" fill="none" xmlns="http://www.w3.org/2000/svg">
<mask id="mask0_117_4323" style="mask-type:alpha" maskUnits="userSpaceOnUse" x="1" y="1" width="38" height="38">
<path fill-rule="evenodd" clip-rule="evenodd" d="M1.66602 20.0003C1.66602 9.83366 9.83268 1.66699 19.9993 1.66699C30.166 1.66699 38.3327 9.83366 38.3327 20.0003C38.3327 30.167 30.166 38.3337 19.9993 38.3337C9.83268 38.3337 1.66602 30.167 1.66602 20.0003ZM4.99994 20.0002C4.99994 28.3336 11.6666 35.0002 19.9999 35.0002C28.3333 35.0002 34.9999 28.3336 34.9999 20.0002C34.9999 11.6669 28.3333 5.00023 19.9999 5.00023C11.6666 5.00023 4.99994 11.6669 4.99994 20.0002Z" fill="white"/>
</mask>
<g mask="url(#mask0_117_4323)">
<rect width="40" height="40" fill="#FF8A00"/>
</g>
<path d="M11.6641 11.6665H15.9998L20.5791 22.8387H20.774L25.3533 11.6665H29.689V28.2949H26.2789V17.4718H26.1409L21.8376 28.2137H19.5155L15.2122 17.4312H15.0742V28.2949H11.6641V11.6665Z" fill="#FF8A00"/>
</svg>
