<svg width="137" height="38" viewBox="0 0 137 38" fill="none" xmlns="http://www.w3.org/2000/svg">
<path d="M0.753818 37V0.983635H7.75418V30.862H26.1175V37H0.753818ZM43.4694 37.2536C40.8315 37.2536 38.4304 36.7464 36.2661 35.7318C34.1355 34.6835 32.2924 33.3138 30.7368 31.6229C29.215 29.8982 28.0314 27.9367 27.1859 25.7385C26.3404 23.5404 25.9177 21.2915 25.9177 18.9918C25.9177 16.5907 26.3574 14.2911 27.2366 12.0929C28.1497 9.89473 29.3841 7.95018 30.9397 6.25927C32.5292 4.56836 34.4061 3.23254 36.5704 2.25182C38.7348 1.23727 41.0852 0.729999 43.6215 0.729999C46.2255 0.729999 48.5928 1.27109 50.7234 2.35327C52.8877 3.40164 54.7308 4.78818 56.2526 6.51291C57.7744 8.23764 58.9581 10.1991 59.8035 12.3973C60.649 14.5955 61.0717 16.8275 61.0717 19.0933C61.0717 21.4944 60.6321 23.794 59.7528 25.9922C58.8735 28.1565 57.6561 30.0842 56.1004 31.7751C54.5448 33.4322 52.6848 34.768 50.5204 35.7825C48.3561 36.7633 46.0057 37.2536 43.4694 37.2536ZM33.0195 18.9918C33.0195 20.5475 33.2563 22.0524 33.7297 23.5065C34.2032 24.9607 34.8795 26.2458 35.7588 27.3618C36.6719 28.4778 37.771 29.374 39.0561 30.0504C40.375 30.7267 41.863 31.0649 43.5201 31.0649C45.211 31.0649 46.699 30.7267 47.9841 30.0504C49.303 29.3402 50.4021 28.4102 51.2814 27.2604C52.1944 26.1105 52.8708 24.8255 53.3104 23.4051C53.7839 21.9509 54.0206 20.4798 54.0206 18.9918C54.0206 17.4362 53.767 15.9313 53.2597 14.4771C52.7863 13.0229 52.093 11.7378 51.1799 10.6218C50.3006 9.50582 49.2015 8.62654 47.8826 7.984C46.5975 7.30764 45.1434 6.96945 43.5201 6.96945C41.8292 6.96945 40.3243 7.32454 39.0054 8.03473C37.6864 8.71109 36.5874 9.62418 35.7081 10.774C34.8288 11.89 34.1524 13.1751 33.679 14.6293C33.2394 16.0496 33.0195 17.5038 33.0195 18.9918ZM91.4502 32.9418C88.5757 35.8164 85.2277 37.2536 81.4062 37.2536C79.039 37.2536 76.807 36.7802 74.7102 35.8333C72.6473 34.8864 70.838 33.5844 69.2824 31.9273C67.7606 30.2702 66.5431 28.3256 65.63 26.0936C64.7508 23.8278 64.3111 21.3929 64.3111 18.7889C64.3111 16.3202 64.7508 14.0036 65.63 11.8393C66.5431 9.64109 67.7775 7.73036 69.3331 6.10709C70.9226 4.45 72.7826 3.148 74.9131 2.20109C77.0437 1.22036 79.3602 0.729999 81.8628 0.729999C85.2446 0.729999 88.136 1.44018 90.5371 2.86054C92.972 4.28091 94.7982 6.19164 96.0157 8.59273L90.7908 12.448C89.8777 10.6556 88.5926 9.286 86.9355 8.33909C85.3122 7.39218 83.5368 6.91872 81.6091 6.91872C80.0873 6.91872 78.6839 7.24 77.3988 7.88255C76.1475 8.52509 75.0653 9.40436 74.1522 10.5204C73.2729 11.6364 72.5797 12.9215 72.0724 14.3756C71.5989 15.8298 71.3622 17.3685 71.3622 18.9918C71.3622 20.6827 71.6328 22.2722 72.1739 23.7602C72.7149 25.2144 73.4589 26.4825 74.4059 27.5647C75.3528 28.6469 76.4688 29.5093 77.7539 30.1518C79.0728 30.7605 80.4931 31.0649 82.0149 31.0649C85.4982 31.0649 88.6433 29.4247 91.4502 26.1444V23.608H84.1962V18.4845H97.2331V37H91.4502V32.9418ZM118.569 37.2536C115.932 37.2536 113.531 36.7464 111.366 35.7318C109.236 34.6835 107.393 33.3138 105.837 31.6229C104.315 29.8982 103.131 27.9367 102.286 25.7385C101.441 23.5404 101.018 21.2915 101.018 18.9918C101.018 16.5907 101.457 14.2911 102.337 12.0929C103.25 9.89473 104.484 7.95018 106.04 6.25927C107.629 4.56836 109.506 3.23254 111.671 2.25182C113.835 1.23727 116.185 0.729999 118.722 0.729999C121.326 0.729999 123.693 1.27109 125.823 2.35327C127.988 3.40164 129.831 4.78818 131.353 6.51291C132.875 8.23764 134.058 10.1991 134.904 12.3973C135.749 14.5955 136.172 16.8275 136.172 19.0933C136.172 21.4944 135.732 23.794 134.853 25.9922C133.974 28.1565 132.756 30.0842 131.201 31.7751C129.645 33.4322 127.785 34.768 125.621 35.7825C123.456 36.7633 121.106 37.2536 118.569 37.2536ZM108.12 18.9918C108.12 20.5475 108.356 22.0524 108.83 23.5065C109.303 24.9607 109.98 26.2458 110.859 27.3618C111.772 28.4778 112.871 29.374 114.156 30.0504C115.475 30.7267 116.963 31.0649 118.62 31.0649C120.311 31.0649 121.799 30.7267 123.084 30.0504C124.403 29.3402 125.502 28.4102 126.381 27.2604C127.295 26.1105 127.971 24.8255 128.411 23.4051C128.884 21.9509 129.121 20.4798 129.121 18.9918C129.121 17.4362 128.867 15.9313 128.36 14.4771C127.886 13.0229 127.193 11.7378 126.28 10.6218C125.401 9.50582 124.302 8.62654 122.983 7.984C121.698 7.30764 120.243 6.96945 118.62 6.96945C116.929 6.96945 115.424 7.32454 114.105 8.03473C112.787 8.71109 111.687 9.62418 110.808 10.774C109.929 11.89 109.253 13.1751 108.779 14.6293C108.339 16.0496 108.12 17.5038 108.12 18.9918Z" fill="white"/>
</svg>
