<svg width="141" height="60" viewBox="0 0 141 60" fill="none" xmlns="http://www.w3.org/2000/svg">
<path d="M3.75382 48V11.9836H10.7542V41.862H29.1175V48H3.75382ZM46.4694 48.2536C43.8315 48.2536 41.4304 47.7464 39.2661 46.7318C37.1355 45.6835 35.2924 44.3138 33.7368 42.6229C32.215 40.8982 31.0314 38.9367 30.1859 36.7385C29.3404 34.5404 28.9177 32.2915 28.9177 29.9918C28.9177 27.5907 29.3574 25.2911 30.2366 23.0929C31.1497 20.8947 32.3841 18.9502 33.9397 17.2593C35.5292 15.5684 37.4061 14.2325 39.5704 13.2518C41.7348 12.2373 44.0852 11.73 46.6215 11.73C49.2255 11.73 51.5928 12.2711 53.7234 13.3533C55.8877 14.4016 57.7308 15.7882 59.2526 17.5129C60.7744 19.2376 61.9581 21.1991 62.8035 23.3973C63.649 25.5955 64.0717 27.8275 64.0717 30.0933C64.0717 32.4944 63.6321 34.794 62.7528 36.9922C61.8735 39.1565 60.6561 41.0842 59.1004 42.7751C57.5448 44.4322 55.6848 45.768 53.5204 46.7825C51.3561 47.7633 49.0057 48.2536 46.4694 48.2536ZM36.0195 29.9918C36.0195 31.5475 36.2563 33.0524 36.7297 34.5065C37.2032 35.9607 37.8795 37.2458 38.7588 38.3618C39.6719 39.4778 40.771 40.374 42.0561 41.0504C43.375 41.7267 44.863 42.0649 46.5201 42.0649C48.211 42.0649 49.699 41.7267 50.9841 41.0504C52.303 40.3402 53.4021 39.4102 54.2814 38.2604C55.1944 37.1105 55.8708 35.8255 56.3104 34.4051C56.7839 32.9509 57.0206 31.4798 57.0206 29.9918C57.0206 28.4362 56.767 26.9313 56.2597 25.4771C55.7863 24.0229 55.093 22.7378 54.1799 21.6218C53.3006 20.5058 52.2015 19.6265 50.8826 18.984C49.5975 18.3076 48.1434 17.9695 46.5201 17.9695C44.8292 17.9695 43.3243 18.3245 42.0054 19.0347C40.6864 19.7111 39.5874 20.6242 38.7081 21.774C37.8288 22.89 37.1524 24.1751 36.679 25.6293C36.2394 27.0496 36.0195 28.5038 36.0195 29.9918ZM94.4502 43.9418C91.5757 46.8164 88.2277 48.2536 84.4062 48.2536C82.039 48.2536 79.807 47.7802 77.7102 46.8333C75.6473 45.8864 73.838 44.5844 72.2824 42.9273C70.7606 41.2702 69.5431 39.3256 68.63 37.0936C67.7508 34.8278 67.3111 32.3929 67.3111 29.7889C67.3111 27.3202 67.7508 25.0036 68.63 22.8393C69.5431 20.6411 70.7775 18.7304 72.3331 17.1071C73.9226 15.45 75.7826 14.148 77.9131 13.2011C80.0437 12.2204 82.3602 11.73 84.8628 11.73C88.2446 11.73 91.136 12.4402 93.5371 13.8605C95.972 15.2809 97.7982 17.1916 99.0157 19.5927L93.7908 23.448C92.8777 21.6556 91.5926 20.286 89.9355 19.3391C88.3122 18.3922 86.5368 17.9187 84.6091 17.9187C83.0873 17.9187 81.6839 18.24 80.3988 18.8825C79.1475 19.5251 78.0653 20.4044 77.1522 21.5204C76.2729 22.6364 75.5797 23.9215 75.0724 25.3756C74.5989 26.8298 74.3622 28.3685 74.3622 29.9918C74.3622 31.6827 74.6328 33.2722 75.1739 34.7602C75.7149 36.2144 76.4589 37.4825 77.4059 38.5647C78.3528 39.6469 79.4688 40.5093 80.7539 41.1518C82.0728 41.7605 83.4931 42.0649 85.0149 42.0649C88.4982 42.0649 91.6433 40.4247 94.4502 37.1444V34.608H87.1962V29.4845H100.233V48H94.4502V43.9418ZM121.569 48.2536C118.932 48.2536 116.531 47.7464 114.366 46.7318C112.236 45.6835 110.393 44.3138 108.837 42.6229C107.315 40.8982 106.131 38.9367 105.286 36.7385C104.441 34.5404 104.018 32.2915 104.018 29.9918C104.018 27.5907 104.457 25.2911 105.337 23.0929C106.25 20.8947 107.484 18.9502 109.04 17.2593C110.629 15.5684 112.506 14.2325 114.671 13.2518C116.835 12.2373 119.185 11.73 121.722 11.73C124.326 11.73 126.693 12.2711 128.823 13.3533C130.988 14.4016 132.831 15.7882 134.353 17.5129C135.875 19.2376 137.058 21.1991 137.904 23.3973C138.749 25.5955 139.172 27.8275 139.172 30.0933C139.172 32.4944 138.732 34.794 137.853 36.9922C136.974 39.1565 135.756 41.0842 134.201 42.7751C132.645 44.4322 130.785 45.768 128.621 46.7825C126.456 47.7633 124.106 48.2536 121.569 48.2536ZM111.12 29.9918C111.12 31.5475 111.356 33.0524 111.83 34.5065C112.303 35.9607 112.98 37.2458 113.859 38.3618C114.772 39.4778 115.871 40.374 117.156 41.0504C118.475 41.7267 119.963 42.0649 121.62 42.0649C123.311 42.0649 124.799 41.7267 126.084 41.0504C127.403 40.3402 128.502 39.4102 129.381 38.2604C130.295 37.1105 130.971 35.8255 131.411 34.4051C131.884 32.9509 132.121 31.4798 132.121 29.9918C132.121 28.4362 131.867 26.9313 131.36 25.4771C130.886 24.0229 130.193 22.7378 129.28 21.6218C128.401 20.5058 127.302 19.6265 125.983 18.984C124.698 18.3076 123.243 17.9695 121.62 17.9695C119.929 17.9695 118.424 18.3245 117.105 19.0347C115.787 19.7111 114.687 20.6242 113.808 21.774C112.929 22.89 112.253 24.1751 111.779 25.6293C111.339 27.0496 111.12 28.5038 111.12 29.9918Z" fill="#761CBD"/>
<ellipse cx="121.5" cy="30" rx="5.5" ry="7" fill="#FF8A00"/>
<ellipse cx="46.5" cy="30" rx="5.5" ry="7" fill="#FF8A00"/>
</svg>
