<svg width="36" height="36" viewBox="0 0 36 36" fill="none" xmlns="http://www.w3.org/2000/svg">
<mask id="mask0_96_2912" style="mask-type:alpha" maskUnits="userSpaceOnUse" x="3" y="3" width="30" height="30">
<path fill-rule="evenodd" clip-rule="evenodd" d="M19.5264 3C26.862 3.3 32.5509 9.15 33 16.35V17.1C33 19.35 32.5509 21.6 31.5029 23.55C29.1076 28.35 24.1673 31.35 18.7779 31.35C16.682 31.35 14.7358 30.9 12.9394 30.15L5.00491 32.85C4.85521 33 4.7055 33 4.55579 33C4.10668 33 3.80726 32.85 3.35814 32.55C3.05873 32.25 2.90902 31.65 3.05873 31.05L5.75344 23.1C5.00491 21.3 4.55579 19.2 4.55579 17.25C4.55579 11.85 7.54992 6.9 12.4902 4.5C14.4364 3.45 16.5323 3 18.7779 3H19.5264ZM28.8082 22.35C29.5568 20.7 30.0059 19.05 30.0059 17.25V16.5C29.5568 10.8 25.0656 6.3 19.3767 6H18.7779C17.1311 6 15.3347 6.45 13.8376 7.2C9.94522 9.15 7.54992 12.9 7.54992 17.25C7.54992 18.9 7.99904 20.7 8.74757 22.2C9.04698 22.65 9.04698 22.95 8.89728 23.4L6.9511 29.1L12.6399 27.15H12.64C13.0891 27.15 13.5382 27.15 13.8376 27.3C15.3347 28.05 17.1311 28.5 18.7779 28.5C23.1194 28.5 26.862 26.25 28.8082 22.35Z" fill="white"/>
</mask>
<g mask="url(#mask0_96_2912)">
<rect width="36" height="36" fill="#761CBD"/>
</g>
</svg>
