<svg width="32" height="32" viewBox="0 0 32 32" fill="none" xmlns="http://www.w3.org/2000/svg">
<mask id="mask0_153_5776" style="mask-type:alpha" maskUnits="userSpaceOnUse" x="2" y="1" width="28" height="30">
<path fill-rule="evenodd" clip-rule="evenodd" d="M25.3327 4.00016H22.666V2.66683C22.666 1.86683 22.1327 1.3335 21.3327 1.3335C20.5327 1.3335 19.9993 1.86683 19.9993 2.66683V4.00016H11.9993V2.66683C11.9993 1.86683 11.466 1.3335 10.666 1.3335C9.86602 1.3335 9.33268 1.86683 9.33268 2.66683V4.00016H6.66602C4.39935 4.00016 2.66602 5.7335 2.66602 8.00016V26.6668C2.66602 28.9335 4.39935 30.6668 6.66602 30.6668H25.3327C27.5993 30.6668 29.3327 28.9335 29.3327 26.6668V8.00016C29.3327 5.7335 27.5993 4.00016 25.3327 4.00016ZM6.66602 6.66683H9.33268V8.00016C9.33268 8.80016 9.86602 9.3335 10.666 9.3335C11.466 9.3335 11.9993 8.80016 11.9993 8.00016V6.66683H19.9993V8.00016C19.9993 8.80016 20.5327 9.3335 21.3327 9.3335C22.1327 9.3335 22.666 8.80016 22.666 8.00016V6.66683H25.3327C26.1327 6.66683 26.666 7.20016 26.666 8.00016V12.0002H5.33268V8.00016C5.33268 7.20016 5.86602 6.66683 6.66602 6.66683ZM6.66602 28.0002H25.3327C26.1327 28.0002 26.666 27.4668 26.666 26.6668V14.6668H5.33268V26.6668C5.33268 27.4668 5.86602 28.0002 6.66602 28.0002Z" fill="white"/>
</mask>
<g mask="url(#mask0_153_5776)">
<rect width="32" height="32" fill="#761CBD"/>
</g>
</svg>
