<svg width="36" height="36" viewBox="0 0 36 36" fill="none" xmlns="http://www.w3.org/2000/svg">
<path fill-rule="evenodd" clip-rule="evenodd" d="M28.5 4.5H25.5V3C25.5 2.1 24.9 1.5 24 1.5C23.1 1.5 22.5 2.1 22.5 3V4.5H13.5V3C13.5 2.1 12.9 1.5 12 1.5C11.1 1.5 10.5 2.1 10.5 3V4.5H7.5C4.95 4.5 3 6.45 3 9V30C3 32.55 4.95 34.5 7.5 34.5H28.5C31.05 34.5 33 32.55 33 30V9C33 6.45 31.05 4.5 28.5 4.5ZM7.5 7.5H10.5V9C10.5 9.9 11.1 10.5 12 10.5C12.9 10.5 13.5 9.9 13.5 9V7.5H22.5V9C22.5 9.9 23.1 10.5 24 10.5C24.9 10.5 25.5 9.9 25.5 9V7.5H28.5C29.4 7.5 30 8.1 30 9V13.5H6V9C6 8.1 6.6 7.5 7.5 7.5ZM7.5 31.5H28.5C29.4 31.5 30 30.9 30 30V16.5H6V30C6 30.9 6.6 31.5 7.5 31.5Z" fill="#FF8A00"/>
<mask id="mask0_117_4046" style="mask-type:alpha" maskUnits="userSpaceOnUse" x="3" y="1" width="30" height="34">
<path fill-rule="evenodd" clip-rule="evenodd" d="M28.5 4.5H25.5V3C25.5 2.1 24.9 1.5 24 1.5C23.1 1.5 22.5 2.1 22.5 3V4.5H13.5V3C13.5 2.1 12.9 1.5 12 1.5C11.1 1.5 10.5 2.1 10.5 3V4.5H7.5C4.95 4.5 3 6.45 3 9V30C3 32.55 4.95 34.5 7.5 34.5H28.5C31.05 34.5 33 32.55 33 30V9C33 6.45 31.05 4.5 28.5 4.5ZM7.5 7.5H10.5V9C10.5 9.9 11.1 10.5 12 10.5C12.9 10.5 13.5 9.9 13.5 9V7.5H22.5V9C22.5 9.9 23.1 10.5 24 10.5C24.9 10.5 25.5 9.9 25.5 9V7.5H28.5C29.4 7.5 30 8.1 30 9V13.5H6V9C6 8.1 6.6 7.5 7.5 7.5ZM7.5 31.5H28.5C29.4 31.5 30 30.9 30 30V16.5H6V30C6 30.9 6.6 31.5 7.5 31.5Z" fill="white"/>
</mask>
<g mask="url(#mask0_117_4046)">
<rect width="36" height="36" fill="#FF8A00"/>
</g>
</svg>
