<svg width="36" height="36" viewBox="0 0 36 36" fill="none" xmlns="http://www.w3.org/2000/svg">
<path fill-rule="evenodd" clip-rule="evenodd" d="M3 15C3 6.75 9.75 0 18 0C26.25 0 33 6.75 33 15C33 26.1 19.35 35.4 18.9 35.7C18.6 35.85 18.3 36 18 36C17.7 36 17.4 35.85 17.1 35.7C16.65 35.4 3 26.1 3 15ZM6 15C6 23.1 15.15 30.6 18 32.7C20.85 30.6 30 23.1 30 15C30 8.4 24.6 3 18 3C11.4 3 6 8.4 6 15ZM18 9C14.7 9 12 11.7 12 15C12 18.3 14.7 21 18 21C21.3 21 24 18.3 24 15C24 11.7 21.3 9 18 9ZM15 15C15 16.65 16.35 18 18 18C19.65 18 21 16.65 21 15C21 13.35 19.65 12 18 12C16.35 12 15 13.35 15 15Z" fill="#FF8A00"/>
<mask id="mask0_117_4030" style="mask-type:alpha" maskUnits="userSpaceOnUse" x="3" y="0" width="30" height="36">
<path fill-rule="evenodd" clip-rule="evenodd" d="M3 15C3 6.75 9.75 0 18 0C26.25 0 33 6.75 33 15C33 26.1 19.35 35.4 18.9 35.7C18.6 35.85 18.3 36 18 36C17.7 36 17.4 35.85 17.1 35.7C16.65 35.4 3 26.1 3 15ZM6 15C6 23.1 15.15 30.6 18 32.7C20.85 30.6 30 23.1 30 15C30 8.4 24.6 3 18 3C11.4 3 6 8.4 6 15ZM18 9C14.7 9 12 11.7 12 15C12 18.3 14.7 21 18 21C21.3 21 24 18.3 24 15C24 11.7 21.3 9 18 9ZM15 15C15 16.65 16.35 18 18 18C19.65 18 21 16.65 21 15C21 13.35 19.65 12 18 12C16.35 12 15 13.35 15 15Z" fill="white"/>
</mask>
<g mask="url(#mask0_117_4030)">
<rect width="36" height="36" fill="#FF8A00"/>
</g>
</svg>
