<svg width="36" height="36" viewBox="0 0 36 36" fill="none" xmlns="http://www.w3.org/2000/svg">
<mask id="mask0_115_3925" style="mask-type:alpha" maskUnits="userSpaceOnUse" x="0" y="4" width="36" height="28">
<path fill-rule="evenodd" clip-rule="evenodd" d="M18 4.5C29.2735 4.5 35.5866 16.8 35.8873 17.4C36.0376 17.7 36.0376 18.3 35.8873 18.6C35.5866 19.2 29.2735 31.5 18 31.5C7.3888 31.5 1.17224 20.6027 0.227755 18.9471L0.227747 18.9471L0.227725 18.9471C0.168794 18.8437 0.130393 18.7764 0.112735 18.75C-0.0375783 18.3 -0.0375783 17.85 0.112735 17.4C0.413361 16.8 6.72651 4.5 18 4.5ZM3.119 18C4.62213 20.4 9.88309 28.5 18 28.5C26.1169 28.5 31.3779 20.4 32.881 18C31.3779 15.6 26.1169 7.5 18 7.5C9.88309 7.5 4.47182 15.6 3.119 18ZM18 12C14.6931 12 11.9875 14.7 11.9875 18C11.9875 21.3 14.6931 24 18 24C21.3069 24 24.0125 21.3 24.0125 18C24.0125 14.7 21.3069 12 18 12ZM14.9937 18C14.9937 19.65 16.3466 21 18 21C19.6534 21 21.0063 19.65 21.0063 18C21.0063 16.35 19.6534 15 18 15C16.3466 15 14.9937 16.35 14.9937 18Z" fill="white"/>
</mask>
<g mask="url(#mask0_115_3925)">
<rect width="36" height="36" fill="#FF8A00"/>
</g>
</svg>
