<svg width="36" height="36" viewBox="0 0 36 36" fill="none" xmlns="http://www.w3.org/2000/svg">
<path fill-rule="evenodd" clip-rule="evenodd" d="M6.02392 10.5C6.02392 6.3 9.33707 3 13.5538 3C17.7706 3 21.0837 6.3 21.0837 10.5C21.0837 14.7 17.7706 18 13.5538 18C9.33707 18 6.02392 14.7 6.02392 10.5ZM27.1076 28.5V31.5C27.1076 32.4 26.5052 33 25.6016 33C24.6981 33 24.0957 32.4 24.0957 31.5V28.5C24.0957 25.95 22.1379 24 19.5777 24H7.5299C4.96973 24 3.01196 25.95 3.01196 28.5V31.5C3.01196 32.4 2.40957 33 1.50598 33C0.602392 33 0 32.4 0 31.5V28.5C0 24.3 3.31315 21 7.5299 21H19.5777C23.7945 21 27.1076 24.3 27.1076 28.5ZM13.5538 15C10.9936 15 9.03588 13.05 9.03588 10.5C9.03588 7.95 10.9936 6 13.5538 6C16.114 6 18.0718 7.95 18.0718 10.5C18.0718 13.05 16.114 15 13.5538 15ZM30.4208 21.3C29.6678 21.15 28.7642 21.6 28.6136 22.35C28.463 23.1 28.9148 24 29.6678 24.15C31.6256 24.6 32.9809 26.4 32.9809 28.5V31.5C32.9809 32.4 33.5833 33 34.4869 33C35.3905 33 35.9929 32.4 35.9929 31.5V28.5C36.1435 25.05 33.8845 22.05 30.4208 21.3ZM22.5897 4.35C22.8909 3.45 23.6439 3 24.3969 3.3C28.463 4.2 30.8726 8.4 29.8184 12.6C29.216 15.3 27.1076 17.25 24.3969 18H24.0957C23.3427 18 22.7403 17.55 22.5897 16.8C22.2885 16.05 22.8909 15.15 23.6439 15C25.3004 14.55 26.5052 13.35 26.957 11.7C27.5594 9.15 26.0534 6.75 23.6439 6.15C22.8909 6 22.4391 5.1 22.5897 4.35Z" fill="#FF8A00"/>
<mask id="mask0_117_4062" style="mask-type:alpha" maskUnits="userSpaceOnUse" x="0" y="3" width="36" height="30">
<path fill-rule="evenodd" clip-rule="evenodd" d="M6.02392 10.5C6.02392 6.3 9.33707 3 13.5538 3C17.7706 3 21.0837 6.3 21.0837 10.5C21.0837 14.7 17.7706 18 13.5538 18C9.33707 18 6.02392 14.7 6.02392 10.5ZM27.1076 28.5V31.5C27.1076 32.4 26.5052 33 25.6016 33C24.6981 33 24.0957 32.4 24.0957 31.5V28.5C24.0957 25.95 22.1379 24 19.5777 24H7.5299C4.96973 24 3.01196 25.95 3.01196 28.5V31.5C3.01196 32.4 2.40957 33 1.50598 33C0.602392 33 0 32.4 0 31.5V28.5C0 24.3 3.31315 21 7.5299 21H19.5777C23.7945 21 27.1076 24.3 27.1076 28.5ZM13.5538 15C10.9936 15 9.03588 13.05 9.03588 10.5C9.03588 7.95 10.9936 6 13.5538 6C16.114 6 18.0718 7.95 18.0718 10.5C18.0718 13.05 16.114 15 13.5538 15ZM30.4208 21.3C29.6678 21.15 28.7642 21.6 28.6136 22.35C28.463 23.1 28.9148 24 29.6678 24.15C31.6256 24.6 32.9809 26.4 32.9809 28.5V31.5C32.9809 32.4 33.5833 33 34.4869 33C35.3905 33 35.9929 32.4 35.9929 31.5V28.5C36.1435 25.05 33.8845 22.05 30.4208 21.3ZM22.5897 4.35C22.8909 3.45 23.6439 3 24.3969 3.3C28.463 4.2 30.8726 8.4 29.8184 12.6C29.216 15.3 27.1076 17.25 24.3969 18H24.0957C23.3427 18 22.7403 17.55 22.5897 16.8C22.2885 16.05 22.8909 15.15 23.6439 15C25.3004 14.55 26.5052 13.35 26.957 11.7C27.5594 9.15 26.0534 6.75 23.6439 6.15C22.8909 6 22.4391 5.1 22.5897 4.35Z" fill="white"/>
</mask>
<g mask="url(#mask0_117_4062)">
<rect width="36" height="36" fill="#FF8A00"/>
</g>
</svg>
