<svg width="36" height="36" viewBox="0 0 36 36" fill="none" xmlns="http://www.w3.org/2000/svg">
<path fill-rule="evenodd" clip-rule="evenodd" d="M33.248 12.32C33.846 12.4697 34.2944 12.7692 34.4439 13.3683C34.5934 13.8175 34.4439 14.4166 33.9955 14.7161L27.1189 21.4552L28.7633 31.0396C28.9128 31.6387 28.6138 32.2377 28.1653 32.5372C27.8664 32.687 27.5674 32.8367 27.2684 32.8367H26.521L18 28.344L9.47905 32.8367C8.88109 33.1363 8.28313 32.9865 7.83465 32.687C7.38618 32.3875 7.0872 31.7884 7.23669 31.1894L8.88109 21.6049L2.00453 14.8658C1.55606 14.5663 1.40657 13.9673 1.55606 13.3683C1.85504 12.7692 2.30351 12.32 2.90147 12.32L12.3194 10.8224L16.6546 2.28623C17.1031 1.23792 18.8969 1.23792 19.3454 2.28623L23.6806 10.9722L33.248 12.32ZM23.9796 21.3054C23.9796 20.8561 24.1291 20.4069 24.4281 19.9576L29.8097 14.7161L22.4847 13.6678C21.8867 13.6678 21.4383 13.3683 21.2888 12.919L18 6.32968L14.7112 13.0688C14.4122 13.3683 13.9638 13.8175 13.5153 13.8175L6.19026 14.8658L11.5719 19.9576C11.8709 20.4069 12.0204 20.8561 12.0204 21.3054L10.675 28.6435L17.2525 25.1991C17.701 24.8996 18.1495 24.8996 18.598 25.1991L25.1755 28.6435L23.9796 21.3054Z" fill="#FF8A00"/>
<mask id="mask0_96_2935" style="mask-type:alpha" maskUnits="userSpaceOnUse" x="1" y="1" width="34" height="32">
<path fill-rule="evenodd" clip-rule="evenodd" d="M33.248 12.32C33.846 12.4697 34.2944 12.7692 34.4439 13.3683C34.5934 13.8175 34.4439 14.4166 33.9955 14.7161L27.1189 21.4552L28.7633 31.0396C28.9128 31.6387 28.6138 32.2377 28.1653 32.5372C27.8664 32.687 27.5674 32.8367 27.2684 32.8367H26.521L18 28.344L9.47905 32.8367C8.88109 33.1363 8.28313 32.9865 7.83465 32.687C7.38618 32.3875 7.0872 31.7884 7.23669 31.1894L8.88109 21.6049L2.00453 14.8658C1.55606 14.5663 1.40657 13.9673 1.55606 13.3683C1.85504 12.7692 2.30351 12.32 2.90147 12.32L12.3194 10.8224L16.6546 2.28623C17.1031 1.23792 18.8969 1.23792 19.3454 2.28623L23.6806 10.9722L33.248 12.32ZM23.9796 21.3054C23.9796 20.8561 24.1291 20.4069 24.4281 19.9576L29.8097 14.7161L22.4847 13.6678C21.8867 13.6678 21.4383 13.3683 21.2888 12.919L18 6.32968L14.7112 13.0688C14.4122 13.3683 13.9638 13.8175 13.5153 13.8175L6.19026 14.8658L11.5719 19.9576C11.8709 20.4069 12.0204 20.8561 12.0204 21.3054L10.675 28.6435L17.2525 25.1991C17.701 24.8996 18.1495 24.8996 18.598 25.1991L25.1755 28.6435L23.9796 21.3054Z" fill="white"/>
</mask>
<g mask="url(#mask0_96_2935)">
<rect width="36" height="36" fill="#FF8A00"/>
</g>
</svg>
