<svg width="78" height="78" viewBox="0 0 78 78" fill="none" xmlns="http://www.w3.org/2000/svg">
<circle cx="48" cy="42" r="14" fill="#FF8A00"/>
<path d="M37.7684 49.9326C37.3875 49.4279 36.6698 49.3274 36.1647 49.7082C35.6598 50.0891 35.5596 50.8069 35.9403 51.3117C36.3572 51.8642 36.8185 52.3941 37.3109 52.8864C40.1261 55.7013 43.869 57.2514 47.8502 57.2514C51.8314 57.2514 55.5742 55.7013 58.3893 52.8864C61.2046 50.0717 62.7549 46.3293 62.7549 42.3487C62.7549 38.3679 61.2045 34.6256 58.3893 31.8109C52.5779 26.0004 43.1224 26.0005 37.3109 31.8109C33.3489 35.7723 31.9469 41.5511 33.6521 46.8923C33.8443 47.4947 34.4891 47.8268 35.091 47.6348C35.6933 47.4426 36.0259 46.7983 35.8335 46.1961C34.39 41.6749 35.5766 36.7831 38.9303 33.43C43.8486 28.5122 51.8518 28.5122 56.7701 33.43C59.1527 35.8124 60.465 38.9797 60.465 42.3488C60.465 45.7179 59.1527 48.8853 56.7701 51.2676C54.3876 53.6498 51.2197 54.962 47.8502 54.962C44.4808 54.962 41.3128 53.65 38.9302 51.2676C38.5124 50.8496 38.1215 50.4006 37.7684 49.9326Z" fill="white"/>
<path d="M76.4248 63.2639L69.2014 56.0415C68.7542 55.5945 68.0293 55.5943 67.582 56.0415L67.5378 56.0857L64.758 53.3063C66.6267 50.4255 67.74 47.0969 67.9591 43.623C67.9988 42.992 67.5194 42.4483 66.8884 42.4084C66.2579 42.37 65.7137 42.848 65.6736 43.4789C65.4002 47.816 63.5551 51.8988 60.4784 54.9751C57.0013 58.4519 52.4351 60.1922 47.8676 60.1967C47.8618 60.1965 47.8561 60.1957 47.8502 60.1957H47.7592C43.2164 60.1729 38.6805 58.4331 35.222 54.9751C31.8488 51.6025 29.9911 47.1182 29.9911 42.3485C29.9911 37.5788 31.8488 33.0945 35.222 29.722C42.1851 22.7595 53.5152 22.7595 60.4784 29.722C63.0719 32.3152 64.7833 35.5861 65.4279 39.1816C65.5396 39.8039 66.1349 40.2174 66.7569 40.1065C67.3794 39.995 67.7935 39.4001 67.682 38.7776C66.9544 34.7196 65.0234 31.0283 62.0977 28.1029C60.648 26.6533 59.0301 25.4722 57.3066 24.5577V15.3308C57.3057 15.0295 57.184 14.7345 56.9713 14.5213L42.7835 0.335309C42.5701 0.122941 42.2753 0.000761719 41.9737 0H3.43504C1.54111 0 0.000152344 1.54065 0.000152344 3.43444V13.0569C0.000152344 13.6892 0.512636 14.2018 1.14517 14.2018C1.77754 14.2018 2.29018 13.6893 2.29018 13.0569V3.43444C2.29018 2.80313 2.80373 2.28957 3.43519 2.28957H40.8291V13.0412C40.8291 14.935 42.3701 16.4757 44.264 16.4757H55.017V23.5208C52.7831 22.6744 50.4278 22.2396 48.0688 22.2142C48.0575 22.2126 48.0466 22.2103 48.0348 22.2103H22.4716C21.8392 22.2103 21.3266 22.723 21.3266 23.3552C21.3266 23.9874 21.8392 24.5001 22.4716 24.5001H38.5021C36.8688 25.3541 35.3292 26.4473 33.935 27.7793H22.4716C21.8392 27.7793 21.3266 28.2919 21.3266 28.9241C21.3266 29.5564 21.8392 30.069 22.4716 30.069H31.8742C30.0053 32.4899 28.728 35.2781 28.1167 38.2544H22.4717C21.8394 38.2544 21.3267 38.7671 21.3267 39.3993C21.3267 40.0315 21.8394 40.5442 22.4717 40.5442H27.7823C27.7296 41.1409 27.7017 41.7426 27.7017 42.3488C27.7017 42.8461 27.7198 43.3406 27.7553 43.8316H22.4719C21.8395 43.8316 21.3269 44.3442 21.3269 44.9764C21.3269 45.6087 21.8395 46.1213 22.4719 46.1213H28.0538C28.6377 49.2201 29.9396 52.1238 31.8777 54.6328H22.4719C21.8395 54.6328 21.3269 55.1452 21.3269 55.7776C21.3269 56.41 21.8395 56.9225 22.4719 56.9225H33.9395C35.3318 58.252 36.869 59.3434 38.4993 60.1964H22.4713C21.8389 60.1964 21.3263 60.709 21.3263 61.3412C21.3263 61.9734 21.8389 62.4861 22.4713 62.4861H47.8502C50.2819 62.4858 52.7138 62.049 55.0167 61.1765V74.5662C55.0167 75.1973 54.5032 75.711 53.8717 75.711H3.43504C2.80373 75.711 2.29003 75.1975 2.29003 74.5662V17.6368C2.29003 17.0046 1.77739 16.492 1.14501 16.492C0.512636 16.492 0 17.0045 0 17.6368V74.5662C0.000152344 76.4593 1.54111 78 3.43504 78H53.8719C55.7658 78 57.3068 76.4593 57.3068 74.5656V60.1391C57.8177 59.8679 58.3192 59.573 58.8099 59.2549L61.5891 62.0336C61.1082 62.4535 61.0824 63.2536 61.5448 63.6969L68.7683 70.9195C70.7834 73.0196 74.4098 73.0194 76.4247 70.9195C78.5252 68.9046 78.525 65.2787 76.4248 63.2639ZM44.2639 14.1861C43.6326 14.1861 43.1189 13.6725 43.1189 13.0412V3.90868L53.3976 14.1861H44.2639ZM60.6777 57.8842C61.1662 57.4804 61.6406 57.0511 62.0977 56.5942C62.5519 56.1399 62.9819 55.6656 63.3877 55.1743L65.9184 57.7046L63.2082 60.4144L60.6777 57.8842ZM74.8055 69.3004C73.6429 70.5123 71.5504 70.512 70.3876 69.3004L63.9736 62.8873L68.3917 58.4698L74.8057 64.8829C76.0174 66.0457 76.0176 68.1377 74.8055 69.3004Z" fill="white"/>
<path d="M10.3906 31.2005H15.3996C16.8119 31.2005 17.9608 30.0518 17.9608 28.6399V23.6314C17.9608 22.2193 16.812 21.0707 15.3996 21.0707H10.3906C8.97852 21.0707 7.82954 22.2193 7.82954 23.6314V28.6399C7.82954 30.0518 8.97852 31.2005 10.3906 31.2005ZM10.1196 23.6314C10.1196 23.482 10.2413 23.3604 10.3906 23.3604H15.3996C15.5492 23.3604 15.6708 23.482 15.6708 23.6314V28.6399C15.6708 28.7893 15.5491 28.9109 15.3996 28.9109H10.3906C10.2411 28.9109 10.1196 28.7893 10.1196 28.6399V23.6314Z" fill="white"/>
<path d="M7.82954 44.6919C7.82954 46.1038 8.97837 47.2525 10.3906 47.2525H15.3996C16.8119 47.2525 17.9608 46.1038 17.9608 44.6919V39.6834C17.9608 38.2715 16.812 37.1228 15.3996 37.1228H10.3906C8.97852 37.1228 7.82954 38.2715 7.82954 39.6834V44.6919ZM10.1196 39.6834C10.1196 39.534 10.2413 39.4124 10.3906 39.4124H15.3996C15.5492 39.4124 15.6708 39.534 15.6708 39.6834V44.6919C15.6708 44.8413 15.5491 44.9629 15.3996 44.9629H10.3906C10.2411 44.9629 10.1196 44.8413 10.1196 44.6919V39.6834Z" fill="white"/>
<path d="M7.82954 61.07C7.82954 62.482 8.97837 63.6306 10.3906 63.6306H15.3996C16.8119 63.6306 17.9608 62.482 17.9608 61.07V56.0616C17.9608 54.6495 16.812 53.5008 15.3996 53.5008H10.3906C8.97852 53.5008 7.82954 54.6495 7.82954 56.0616V61.07ZM10.1196 56.0616C10.1196 55.9121 10.2413 55.7906 10.3906 55.7906H15.3996C15.5492 55.7906 15.6708 55.9121 15.6708 56.0616V61.07C15.6708 61.2195 15.5491 61.3411 15.3996 61.3411H10.3906C10.2411 61.3411 10.1196 61.2195 10.1196 61.07V56.0616Z" fill="white"/>
<path fill-rule="evenodd" clip-rule="evenodd" d="M47.836 34.2773C48.5091 34.2773 49.0548 34.823 49.0548 35.4961V48.9023C49.0548 49.5754 48.5091 50.1211 47.836 50.1211C47.1629 50.1211 46.6173 49.5754 46.6173 48.9023V35.4961C46.6173 34.823 47.1629 34.2773 47.836 34.2773Z" fill="white"/>
<path fill-rule="evenodd" clip-rule="evenodd" d="M39.9142 42.1992C39.9142 41.5261 40.4598 40.9805 41.1329 40.9805H54.5391C55.2122 40.9805 55.7579 41.5261 55.7579 42.1992C55.7579 42.8723 55.2122 43.418 54.5391 43.418H41.1329C40.4598 43.418 39.9142 42.8723 39.9142 42.1992Z" fill="white"/>
</svg>
