<svg width="78" height="78" viewBox="0 0 78 78" fill="none" xmlns="http://www.w3.org/2000/svg">
<circle cx="38.9387" cy="38.9387" r="30.247" fill="#FF8A00"/>
<path fill-rule="evenodd" clip-rule="evenodd" d="M39 0C17.4829 0 0 17.4829 0 39C0 60.5171 17.4834 78.0121 39.0018 78C46.9929 77.9954 54.7826 75.5131 61.3202 70.9269C61.5272 70.79 61.7047 70.613 61.8422 70.4063C61.9796 70.1996 62.0743 69.9675 62.1205 69.7236C62.1668 69.4797 62.1636 69.229 62.1113 68.9864C62.0591 68.7437 61.9587 68.514 61.8161 68.3108C61.6735 68.1077 61.4916 67.9351 61.2813 67.8034C61.0709 67.6717 60.8362 67.5835 60.5912 67.544C60.3461 67.5045 60.0956 67.5145 59.8545 67.5735C59.6134 67.6325 59.3865 67.7392 59.1874 67.8873C53.2697 72.0386 46.2215 74.2817 38.9982 74.2857C19.4897 74.2966 3.71429 58.5098 3.71429 39C3.71429 19.4902 19.4902 3.71429 39 3.71429C58.5098 3.71429 74.2897 19.4907 74.2857 39C74.2842 46.2294 72.054 53.2832 67.9072 59.2073C67.7625 59.4069 67.659 59.6333 67.6027 59.8733C67.5464 60.1134 67.5385 60.3622 67.5793 60.6053C67.6202 60.8484 67.7091 61.081 67.8407 61.2894C67.9724 61.4978 68.1442 61.678 68.3462 61.8193C68.5482 61.9606 68.7763 62.0603 69.0173 62.1126C69.2582 62.1648 69.5071 62.1686 69.7495 62.1237C69.9919 62.0787 70.223 61.986 70.4291 61.8508C70.6353 61.7157 70.8125 61.5408 70.9505 61.3365C75.5329 54.7901 77.9984 46.9927 78 39C78.0042 17.4824 60.5171 0 39 0ZM39 7.42857C34.9377 7.42976 30.9161 8.22385 27.1571 9.75181C26.931 9.84371 26.7253 9.97924 26.5516 10.1507C26.3779 10.3221 26.2397 10.5261 26.1448 10.7509C26.05 10.9757 26.0003 11.2171 25.9988 11.4611C25.9972 11.7051 26.0437 11.9471 26.1357 12.1731C26.2276 12.3992 26.3632 12.6049 26.5346 12.7786C26.7061 12.9522 26.9101 13.0904 27.135 13.1852C27.3598 13.28 27.6012 13.3296 27.8452 13.3311C28.0892 13.3326 28.3312 13.286 28.5572 13.1941C31.8765 11.8448 35.4215 11.1439 39 11.1429C54.4064 11.1383 66.8571 23.5929 66.8571 39C66.8571 54.4071 54.4071 66.8571 39 66.8571C23.5929 66.8571 11.1379 54.4063 11.1429 39C11.144 35.4217 11.846 31.8765 13.1959 28.5572C13.2879 28.3312 13.3345 28.0892 13.333 27.8452C13.3315 27.6011 13.2819 27.3598 13.1871 27.1349C13.0923 26.91 12.9541 26.706 12.7805 26.5345C12.6068 26.3631 12.4011 26.2275 12.175 26.1355C11.9489 26.0436 11.707 25.9971 11.4629 25.9986C11.2189 26.0002 10.9776 26.0499 10.7527 26.1447C10.5278 26.2396 10.3239 26.3778 10.1525 26.5515C9.98103 26.7252 9.84551 26.931 9.75362 27.1571C8.22505 30.9158 7.42989 34.9373 7.42857 39C7.42292 56.4151 21.5856 70.5714 39 70.5714C56.4144 70.5714 70.5714 56.4144 70.5714 39C70.5714 21.5856 56.4151 7.42346 39 7.42857ZM52.1306 24.0884C50.7007 24.0884 49.2695 24.6263 48.1896 25.7062L33.7459 40.148L29.805 36.2143C27.6451 34.0545 24.0883 34.0545 21.9284 36.2143C19.7686 38.3741 19.7686 41.931 21.9284 44.0908L29.805 51.9728C31.9648 54.1326 35.5289 54.1326 37.6887 51.9728L56.0716 33.5827C58.2314 31.4229 58.2314 27.866 56.0716 25.7062C54.9916 24.6263 53.5604 24.0884 52.1306 24.0884ZM52.1342 27.7683C52.603 27.7683 53.0721 27.9572 53.4473 28.3323C54.1975 29.0825 54.1975 30.2064 53.4473 30.9566L35.0626 49.3412C34.3124 50.0915 33.1867 50.0915 32.4365 49.3412L24.5545 41.4647C23.8043 40.7145 23.8043 39.5906 24.5545 38.8404C25.3048 38.0902 26.4304 38.0902 27.1807 38.8404L32.4365 44.0908C32.7848 44.439 33.2571 44.6345 33.7496 44.6345C34.242 44.6345 34.7143 44.439 35.0626 44.0908L50.8211 28.3323C51.1963 27.9572 51.6654 27.7683 52.1342 27.7683ZM65.292 63.4076C65.0434 63.4036 64.7965 63.4495 64.5659 63.5426C64.3354 63.6358 64.1259 63.7743 63.9499 63.9499C63.7772 64.1224 63.6402 64.3272 63.5468 64.5527C63.4533 64.7781 63.4052 65.0198 63.4052 65.2639C63.4052 65.5079 63.4533 65.7496 63.5468 65.9751C63.6402 66.2005 63.7772 66.4054 63.9499 66.5778C64.1224 66.7505 64.3272 66.8875 64.5527 66.981C64.7781 67.0744 65.0198 67.1226 65.2639 67.1226C65.5079 67.1226 65.7496 67.0744 65.9751 66.981C66.2005 66.8875 66.4054 66.7505 66.5778 66.5778C66.7505 66.4054 66.8875 66.2005 66.981 65.9751C67.0744 65.7496 67.1225 65.5079 67.1225 65.2639C67.1225 65.0198 67.0744 64.7781 66.981 64.5527C66.8875 64.3272 66.7505 64.1224 66.5778 63.9499C66.236 63.6089 65.7748 63.4144 65.292 63.4076Z" fill="white"/>
</svg>
