<svg width="78" height="78" viewBox="0 0 78 78" fill="none" xmlns="http://www.w3.org/2000/svg">
<path d="M23.9033 78H54.0969C54.4305 78 54.7505 77.8674 54.9865 77.6315C55.2224 77.3956 55.3549 77.0756 55.3549 76.7419V71.7097C55.3493 70.5644 55.0312 69.4425 54.4348 68.4647C53.8384 67.487 52.9865 66.6907 51.9707 66.1616C52.6716 65.6438 53.2328 64.9601 53.6039 64.1717C53.975 63.3834 54.1444 62.5152 54.0969 61.6451C54.0366 60.8577 53.8104 60.0919 53.4331 59.398C53.0559 58.7042 52.536 58.098 51.9078 57.6193C51.7766 57.4978 51.6728 57.3496 51.6034 57.1847C51.534 57.0198 51.5005 56.842 51.5053 56.6632C51.8198 50.3729 51.1278 46.3974 49.3791 44.5606C47.6304 42.7239 43.6927 41.5161 39.0001 41.5161C34.3075 41.5161 30.4327 42.6609 28.6337 44.5606C26.8346 46.4603 26.1175 50.3603 26.4949 56.6632C26.4999 56.8451 26.4654 57.0259 26.3937 57.1931C26.322 57.3604 26.2149 57.5101 26.0798 57.6319C25.4542 58.1093 24.9369 58.7137 24.5618 59.4054C24.1866 60.0972 23.9622 60.8605 23.9033 61.6451C23.8558 62.5152 24.0252 63.3834 24.3963 64.1717C24.7674 64.9601 25.3286 65.6438 26.0295 66.1616C25.0138 66.6907 24.1618 67.487 23.5654 68.4647C22.969 69.4425 22.6509 70.5644 22.6453 71.7097V76.7419C22.6453 77.0756 22.7778 77.3956 23.0137 77.6315C23.2497 77.8674 23.5697 78 23.9033 78ZM27.6775 59.5316C28.0969 59.1576 28.4274 58.6948 28.6451 58.1767C28.8627 57.6587 28.962 57.0987 28.9356 56.5374C28.5707 49.3287 29.6778 47.0264 30.3824 46.2968C31.7285 44.938 35.2259 44.0322 39.0001 44.0322C42.7743 44.0322 46.2717 44.938 47.5549 46.2968C48.2469 47.0264 49.354 49.3287 48.9891 56.5374C48.9646 57.0966 49.0648 57.6542 49.2824 58.1699C49.5 58.6856 49.8295 59.1464 50.2472 59.519C50.6 59.7666 50.8997 60.0823 51.1287 60.4474C51.3577 60.8125 51.5114 61.2198 51.5807 61.6451C51.5807 63.1548 50.8259 64.1613 50.3227 64.1613C49.9682 64.1958 49.6317 64.3333 49.3544 64.5569C49.0772 64.7805 48.8715 65.0803 48.7627 65.4193H44.0324V64.5135C44.8136 63.9276 45.4477 63.1678 45.8844 62.2944C46.3211 61.4209 46.5485 60.4578 46.5485 59.4813V57.5313C46.9298 57.3101 47.2463 56.9926 47.4663 56.6107C47.6863 56.2287 47.8021 55.7956 47.8021 55.3548C47.8021 54.914 47.6863 54.481 47.4663 54.099C47.2463 53.717 46.9298 53.3996 46.5485 53.1784V51.5806C46.5485 50.246 46.0183 48.966 45.0746 48.0223C44.1308 47.0786 42.8509 46.5484 41.5162 46.5484C41.1826 46.5484 40.8626 46.6809 40.6266 46.9168C40.3907 47.1528 40.2582 47.4728 40.2582 47.8064C40.2582 48.8074 39.8605 49.7674 39.1527 50.4752C38.4449 51.183 37.485 51.5806 36.484 51.5806C35.7031 51.5766 34.9427 51.3305 34.3075 50.8761C34.1521 50.7679 33.9742 50.6962 33.7871 50.6664C33.6001 50.6365 33.4087 50.6493 33.2273 50.7037C33.0459 50.7581 32.8791 50.8528 32.7394 50.9807C32.5997 51.1086 32.4907 51.2663 32.4204 51.4422L31.7914 53.0148C31.3209 53.1993 30.9168 53.5212 30.6318 53.9385C30.3468 54.3559 30.1942 54.8494 30.1937 55.3548C30.1941 55.7961 30.3106 56.2294 30.5314 56.6114C30.7522 56.9934 31.0696 57.3107 31.4517 57.5313V59.4939C31.4517 60.4704 31.6791 61.4335 32.1158 62.307C32.5525 63.1804 33.1866 63.9402 33.9678 64.5261V65.4193H29.2375C29.1287 65.0803 28.923 64.7805 28.6458 64.5569C28.3685 64.3333 28.032 64.1958 27.6775 64.1613C27.1743 64.1613 26.4195 63.1548 26.4195 61.6451C26.4798 61.2274 26.622 60.8257 26.8379 60.463C27.0538 60.1003 27.3391 59.7838 27.6775 59.5316ZM39.4153 63.8719C39.1164 63.991 38.7832 63.991 38.4843 63.8719L36.2953 63.0039C35.6024 62.7163 35.011 62.2289 34.5964 61.6037C34.1819 60.9785 33.9631 60.244 33.9678 59.4939V56.6129C33.9678 56.2792 33.8353 55.9592 33.5994 55.7233C33.3634 55.4874 33.0434 55.3548 32.7098 55.3548C32.9617 55.3551 33.208 55.2796 33.4166 55.1383C33.6252 54.997 33.7866 54.7963 33.8798 54.5622L34.232 53.6816C34.9505 53.9583 35.7141 54.099 36.484 54.0968C37.8926 54.0978 39.2609 53.626 40.3695 52.7569C41.4781 51.8878 42.2629 50.6717 42.5982 49.3035C43.0283 49.5084 43.3914 49.8311 43.6453 50.2342C43.8992 50.6373 44.0334 51.1042 44.0324 51.5806V54.0968C44.0324 54.4304 44.1649 54.7504 44.4008 54.9863C44.6368 55.2223 44.9568 55.3548 45.2904 55.3548C44.9568 55.3548 44.6368 55.4874 44.4008 55.7233C44.1649 55.9592 44.0324 56.2792 44.0324 56.6129V59.4939C44.0331 60.2497 43.8068 60.9884 43.3829 61.6143C42.959 62.2401 42.3569 62.7242 41.6546 63.0039L39.4153 63.8719ZM41.5162 65.7716V66.6774C41.5162 67.3447 41.2511 67.9847 40.7793 68.4566C40.3074 68.9284 39.6674 69.1935 39.0001 69.1935C38.3328 69.1935 37.6928 68.9284 37.2209 68.4566C36.7491 67.9847 36.484 67.3447 36.484 66.6774V65.7716L37.6037 66.2119C38.498 66.581 39.5022 66.581 40.3966 66.2119L41.5162 65.7716ZM25.1614 71.7097C25.1614 70.7087 25.559 69.7487 26.2668 69.0409C26.9746 68.3331 27.9346 67.9355 28.9356 67.9355H34.1314C34.4129 69.0124 35.0434 69.9656 35.9244 70.6459C36.8054 71.3262 37.887 71.6952 39.0001 71.6952C40.1132 71.6952 41.1948 71.3262 42.0758 70.6459C42.9568 69.9656 43.5873 69.0124 43.8688 67.9355H49.0646C50.0656 67.9355 51.0256 68.3331 51.7334 69.0409C52.4412 69.7487 52.8388 70.7087 52.8388 71.7097V75.4839H25.1614V71.7097Z" fill="white"/>
<path d="M8.80643 56.5374C9.80171 56.5374 10.7746 56.2423 11.6022 55.6893C12.4298 55.1364 13.0747 54.3504 13.4556 53.4309C13.8365 52.5114 13.9362 51.4996 13.742 50.5234C13.5478 49.5473 13.0685 48.6506 12.3648 47.9468C11.661 47.243 10.7643 46.7638 9.78817 46.5696C8.81201 46.3754 7.80019 46.4751 6.88067 46.856C5.96114 47.2368 5.17521 47.8818 4.62226 48.7094C4.06931 49.5369 3.77417 50.5099 3.77417 51.5052C3.77417 52.8398 4.30435 54.1198 5.24808 55.0635C6.19182 56.0072 7.47179 56.5374 8.80643 56.5374ZM8.80643 48.989C9.30407 48.989 9.79054 49.1366 10.2043 49.4131C10.6181 49.6896 10.9406 50.0825 11.131 50.5423C11.3215 51.002 11.3713 51.508 11.2742 51.996C11.1771 52.4841 10.9375 52.9324 10.5856 53.2843C10.2337 53.6362 9.78538 53.8759 9.2973 53.9729C8.80922 54.07 8.30331 54.0202 7.84355 53.8298C7.38378 53.6393 6.99082 53.3168 6.71434 52.903C6.43787 52.4893 6.2903 52.0028 6.2903 51.5052C6.2903 50.8378 6.55539 50.1979 7.02726 49.726C7.49912 49.2541 8.13911 48.989 8.80643 48.989Z" fill="white"/>
<path d="M1.25806 70.3762H16.3548C16.6885 70.3762 17.0085 70.2436 17.2444 70.0077C17.4804 69.7718 17.6129 69.4518 17.6129 69.1181V64.0859C17.6129 62.4176 16.9502 60.8176 15.7705 59.6379C14.5908 58.4583 12.9909 57.7955 11.3226 57.7955H6.29032C5.46427 57.7955 4.6463 57.9582 3.88312 58.2744C3.11994 58.5905 2.4265 59.0538 1.84239 59.6379C0.662728 60.8176 0 62.4176 0 64.0859V69.1181C0 69.4518 0.132546 69.7718 0.368479 70.0077C0.604411 70.2436 0.924405 70.3762 1.25806 70.3762ZM2.51613 64.0859C2.51613 63.0849 2.91377 62.1249 3.62156 61.4171C4.32936 60.7093 5.28934 60.3117 6.29032 60.3117H11.3226C12.3236 60.3117 13.2835 60.7093 13.9913 61.4171C14.6991 62.1249 15.0968 63.0849 15.0968 64.0859V67.86H2.51613V64.0859Z" fill="white"/>
<path d="M69.1936 56.5374C70.1889 56.5374 71.1619 56.2423 71.9894 55.6893C72.817 55.1364 73.462 54.3504 73.8428 53.4309C74.2237 52.5114 74.3234 51.4996 74.1292 50.5234C73.935 49.5473 73.4558 48.6506 72.752 47.9468C72.0482 47.243 71.1515 46.7638 70.1754 46.5696C69.1992 46.3754 68.1874 46.4751 67.2679 46.856C66.3483 47.2368 65.5624 47.8818 65.0095 48.7094C64.4565 49.5369 64.1614 50.5099 64.1614 51.5052C64.1614 52.8398 64.6916 54.1198 65.6353 55.0635C66.579 56.0072 67.859 56.5374 69.1936 56.5374ZM69.1936 48.989C69.6913 48.989 70.1777 49.1366 70.5915 49.4131C71.0053 49.6896 71.3278 50.0825 71.5182 50.5423C71.7087 51.002 71.7585 51.508 71.6614 51.996C71.5643 52.4841 71.3247 52.9324 70.9728 53.2843C70.6209 53.6362 70.1726 53.8759 69.6845 53.9729C69.1964 54.07 68.6905 54.0202 68.2308 53.8298C67.771 53.6393 67.378 53.3168 67.1015 52.903C66.8251 52.4893 66.6775 52.0028 66.6775 51.5052C66.6775 50.8378 66.9426 50.1979 67.4145 49.726C67.8863 49.2541 68.5263 48.989 69.1936 48.989Z" fill="white"/>
<path d="M71.7098 57.7955H66.6775C65.0092 57.7955 63.4093 58.4583 62.2296 59.6379C61.0499 60.8176 60.3872 62.4176 60.3872 64.0859V69.1181C60.3872 69.4518 60.5198 69.7718 60.7557 70.0077C60.9916 70.2436 61.3116 70.3762 61.6453 70.3762H76.742C77.0757 70.3762 77.3957 70.2436 77.6316 70.0077C77.8676 69.7718 78.0001 69.4518 78.0001 69.1181V64.0859C78.0001 62.4176 77.3374 60.8176 76.1577 59.6379C74.9781 58.4583 73.3781 57.7955 71.7098 57.7955ZM75.484 67.86H62.9033V64.0859C62.9033 63.0849 63.301 62.1249 64.0088 61.4171C64.7166 60.7093 65.6766 60.3117 66.6775 60.3117H71.7098C72.7108 60.3117 73.6707 60.7093 74.3785 61.4171C75.0863 62.1249 75.484 63.0849 75.484 64.0859V67.86Z" fill="white"/>
<path d="M28.7449 14.311C28.5158 14.3452 28.3006 14.442 28.1231 14.5908C27.9455 14.7395 27.8124 14.9344 27.7385 15.1539C27.6686 15.3702 27.6586 15.6014 27.7095 15.8229C27.7605 16.0444 27.8705 16.248 28.0278 16.412L32.6198 21.1171L31.5378 27.7723C31.5098 28.0016 31.5455 28.2343 31.6409 28.4447C31.7364 28.6551 31.888 28.8351 32.079 28.9651C32.27 29.095 32.4932 29.1699 32.7239 29.1814C32.9547 29.1929 33.1842 29.1406 33.3872 29.0304L38.9982 25.9984L44.6091 29.1058C44.7946 29.2059 45.0022 29.2579 45.213 29.2568C45.4738 29.2588 45.7288 29.1796 45.9427 29.0304C46.1401 28.8921 46.2937 28.7 46.3852 28.477C46.4766 28.254 46.5021 28.0094 46.4585 27.7723L45.3766 21.1171L49.9685 16.412C50.1259 16.248 50.2359 16.0444 50.2868 15.8229C50.3378 15.6014 50.3278 15.3702 50.2578 15.1539C50.1839 14.9344 50.0509 14.7395 49.8733 14.5908C49.6957 14.442 49.4805 14.3452 49.2514 14.311L42.9611 13.3549L40.143 7.34132C40.0429 7.12168 39.8818 6.93546 39.6788 6.80487C39.4758 6.67429 39.2395 6.60486 38.9982 6.60486C38.7568 6.60486 38.5205 6.67429 38.3175 6.80487C38.1145 6.93546 37.9534 7.12168 37.8533 7.34132L35.0353 13.3549L28.7449 14.311Z" fill="#FF8A00"/>
<path d="M64.6359 37.8634C64.534 37.8786 64.4384 37.9216 64.3594 37.9877C64.2805 38.0538 64.2213 38.1403 64.1885 38.2379C64.1574 38.334 64.153 38.4367 64.1756 38.5351C64.1983 38.6335 64.2472 38.724 64.3171 38.7969L66.3583 40.8874L65.8774 43.8444C65.8649 43.9463 65.8808 44.0496 65.9232 44.1431C65.9656 44.2366 66.033 44.3166 66.1179 44.3743C66.2029 44.4321 66.302 44.4653 66.4046 44.4705C66.5072 44.4756 66.6092 44.4523 66.6995 44.4033L69.1936 43.0562L71.6878 44.4369C71.7703 44.4814 71.8626 44.5044 71.9562 44.504C72.0722 44.5048 72.1855 44.4697 72.2806 44.4033C72.3684 44.3419 72.4367 44.2566 72.4773 44.1575C72.518 44.0584 72.5293 43.9497 72.5099 43.8444L72.029 40.8874L74.0702 38.7969C74.1401 38.724 74.189 38.6335 74.2117 38.5351C74.2343 38.4367 74.2299 38.334 74.1988 38.2379C74.1659 38.1403 74.1068 38.0538 74.0278 37.9877C73.9489 37.9216 73.8532 37.8786 73.7514 37.8634L70.9552 37.4386L69.7025 34.7667C69.6581 34.6691 69.5864 34.5863 69.4962 34.5283C69.406 34.4703 69.3009 34.4395 69.1936 34.4395C69.0863 34.4395 68.9813 34.4703 68.8911 34.5283C68.8008 34.5863 68.7292 34.6691 68.6847 34.7667L67.432 37.4386L64.6359 37.8634Z" fill="#FF8A00"/>
<path d="M4.24867 37.8634C4.14683 37.8786 4.05117 37.9216 3.97223 37.9877C3.89329 38.0538 3.83413 38.1403 3.80128 38.2379C3.7702 38.334 3.76575 38.4367 3.7884 38.5351C3.81105 38.6335 3.85995 38.724 3.92991 38.7969L5.97111 40.8874L5.49017 43.8444C5.47771 43.9463 5.49357 44.0496 5.536 44.1431C5.57844 44.2366 5.64581 44.3166 5.73073 44.3743C5.81565 44.4321 5.91483 44.4653 6.01741 44.4705C6.11999 44.4756 6.222 44.4523 6.31225 44.4033L8.80643 43.0562L11.3006 44.4369C11.3831 44.4814 11.4754 44.5044 11.569 44.504C11.685 44.5048 11.7983 44.4697 11.8934 44.4033C11.9812 44.3419 12.0495 44.2566 12.0901 44.1575C12.1307 44.0584 12.1421 43.9497 12.1227 43.8444L11.6417 40.8874L13.6829 38.7969C13.7529 38.724 13.8018 38.6335 13.8245 38.5351C13.8471 38.4367 13.8427 38.334 13.8116 38.2379C13.7787 38.1403 13.7196 38.0538 13.6406 37.9877C13.5617 37.9216 13.466 37.8786 13.3642 37.8634L10.568 37.4386L9.31533 34.7667C9.27085 34.6691 9.19922 34.5863 9.10898 34.5283C9.01875 34.4703 8.91372 34.4395 8.80643 34.4395C8.69914 34.4395 8.59411 34.4703 8.50387 34.5283C8.41364 34.5863 8.34201 34.6691 8.29752 34.7667L7.04484 37.4386L4.24867 37.8634Z" fill="#FF8A00"/>
<path d="M57.8711 18.8711H55.3549C55.3518 20.0165 55.2338 21.1586 55.0027 22.2804L57.5188 22.8088C57.7738 21.5122 57.8918 20.1924 57.8711 18.8711Z" fill="white"/>
<path d="M50.1968 6.94456C51.0292 7.73479 51.7795 8.6073 52.4361 9.54876L54.4994 8.11456C53.7702 7.02552 52.9267 6.01754 51.9832 5.10779L50.1968 6.94456Z" fill="white"/>
<path d="M54.0969 12.5808C54.5455 13.6363 54.8787 14.7372 55.0908 15.8643L57.6069 15.3988C57.3663 14.1037 56.9867 12.8383 56.4747 11.6246L54.0969 12.5808Z" fill="white"/>
<path d="M29.8286 2.37786L31.0867 4.57948C32.0876 4.01814 33.1464 3.5668 34.2444 3.23335L33.4644 0.830444C32.1998 1.21252 30.9807 1.7314 29.8286 2.37786Z" fill="white"/>
<path d="M20.5945 14.7195L23.0477 15.2605C23.3004 14.1439 23.6671 13.0562 24.1422 12.0147L21.8651 10.9579C21.309 12.163 20.883 13.424 20.5945 14.7195Z" fill="white"/>
<path d="M41.013 2.64205L41.315 0.125918C40.5464 0.0395468 39.7735 -0.00245836 39.0001 0.00011109C38.4717 0.00011109 37.893 0.000111017 37.3521 0.0755949L37.5785 2.59172H38.9624C39.6462 2.55802 40.3316 2.57484 41.013 2.64205Z" fill="white"/>
<path d="M30.7094 32.974C29.7208 32.3903 28.7971 31.7029 27.9542 30.9233L26.2559 32.7853C27.2265 33.6794 28.2892 34.468 29.4262 35.1379L30.7094 32.974Z" fill="white"/>
<path d="M20.129 18.8711C20.126 20.1381 20.2482 21.4023 20.4938 22.6453L23.0099 22.1546C22.7771 21.0753 22.6549 19.9751 22.6451 18.8711V18.6824H20.129V18.8711Z" fill="white"/>
<path d="M25.6772 28.357C25.0088 27.4227 24.4436 26.4188 23.9914 25.3628L21.6765 26.3692C22.2046 27.5831 22.8581 28.7384 23.6265 29.8163L25.6772 28.357Z" fill="white"/>
<path d="M53.9333 25.5514C53.4645 26.5988 52.8868 27.594 52.2097 28.5204L54.2478 30.0049C55.0281 28.9324 55.6943 27.7813 56.2355 26.5704L53.9333 25.5514Z" fill="white"/>
<path d="M33.8294 34.3956L33.0369 36.786C34.2962 37.1989 35.5946 37.4813 36.9117 37.6289L37.1885 35.1127C36.0473 34.9889 34.9217 34.7486 33.8294 34.3956Z" fill="white"/>
<path d="M49.9075 31.0616C49.0495 31.8227 48.1181 32.497 47.1272 33.0745L48.3853 35.251C49.5289 34.594 50.6 33.8181 51.5807 32.9362L49.9075 31.0616Z" fill="white"/>
<path d="M45.1772 1.03174L44.3469 3.40948C45.4302 3.78769 46.4715 4.27673 47.4543 4.86883L48.7124 2.71754C47.5925 2.04032 46.4084 1.47563 45.1772 1.03174Z" fill="white"/>
<path d="M26.5828 4.65491C25.5916 5.52391 24.6936 6.49364 23.9031 7.54846L25.916 9.05813C26.6058 8.13988 27.3901 7.29656 28.256 6.542L26.5828 4.65491Z" fill="white"/>
<path d="M44.0324 34.4585C42.9393 34.8033 41.8137 35.0352 40.6733 35.1504L40.9249 37.6666C42.2406 37.5305 43.5389 37.2608 44.7998 36.8614L44.0324 34.4585Z" fill="white"/>
</svg>
