<svg width="36" height="36" viewBox="0 0 36 36" fill="none" xmlns="http://www.w3.org/2000/svg">
<mask id="mask0_115_3926" style="mask-type:alpha" maskUnits="userSpaceOnUse" x="0" y="7" width="36" height="22">
<path d="M36 9V18C36 18.9 35.4 19.5 34.5 19.5C33.6 19.5 33 18.9 33 18V12.6L21.3 24.3C20.7 24.9 19.8 24.9 19.2 24.3L12.75 17.85L2.55 28.05C2.25 28.35 1.95 28.5 1.5 28.5C1.05 28.5 0.75 28.35 0.45 28.05C-0.15 27.45 -0.15 26.55 0.45 25.95L11.7 14.7C12.3 14.1 13.2 14.1 13.8 14.7L20.25 21.15L30.9 10.5H25.5C24.6 10.5 24 9.9 24 9C24 8.1 24.6 7.5 25.5 7.5H34.5C34.65 7.5 34.95 7.5 35.1 7.65C35.4 7.8 35.7 8.1 35.85 8.4C36 8.55 36 8.85 36 9Z" fill="white"/>
</mask>
<g mask="url(#mask0_115_3926)">
<rect width="36" height="36" fill="#FF8A00"/>
</g>
</svg>
