<svg width="36" height="36" viewBox="0 0 36 36" fill="none" xmlns="http://www.w3.org/2000/svg">
<mask id="mask0_151_6498" style="mask-type:alpha" maskUnits="userSpaceOnUse" x="0" y="4" width="37" height="27">
<path fill-rule="evenodd" clip-rule="evenodd" d="M35.287 9.36373L35.266 9.26579C34.7728 7.29555 33.2635 5.73956 31.3092 5.18665C30.1294 4.89754 27.9098 4.7272 24.7928 4.61846C23.3055 4.56658 21.7148 4.53329 20.1244 4.5148C19.5681 4.50833 19.0514 4.50417 18.5875 4.50186C18.3085 4.50046 18.1086 4.5 18.0009 4.5C17.8929 4.5 17.6928 4.50051 17.4135 4.50203C16.9493 4.50457 16.4323 4.50913 15.8756 4.51621C14.2843 4.53648 12.6925 4.57297 11.204 4.62984C8.0769 4.74931 5.85241 4.93629 4.71333 5.24093C2.73821 5.79956 1.2289 7.35555 0.735756 9.32579C0.226219 12.1324 -0.0127135 14.8801 0.000885927 17.6324C-0.0165143 20.3886 0.222433 23.1573 0.71469 25.8863C1.29147 27.9384 2.79195 29.4234 4.70499 29.9468C5.85241 30.2537 8.0769 30.4407 11.204 30.5602C12.6925 30.617 14.2843 30.6535 15.8756 30.6738C16.4323 30.6809 16.9493 30.6854 17.4135 30.688C17.6928 30.6895 17.8929 30.69 18.0009 30.69C18.1088 30.69 18.309 30.6895 18.5882 30.688C19.0525 30.6854 19.5694 30.6809 20.1261 30.6738C21.7175 30.6535 23.3092 30.617 24.7977 30.5602C27.9248 30.4407 30.1493 30.2537 31.2884 29.9491C33.2635 29.3904 34.7728 27.8345 35.266 25.8642C35.7718 23.0779 36.0107 20.3512 36.0009 17.6196C36.0182 14.8614 35.7793 12.0927 35.287 9.36373ZM24.6882 7.61664C27.5736 7.71729 29.6979 7.88032 30.545 8.08719C31.3992 8.32984 32.1012 9.04353 32.3445 9.95063C32.7973 12.4801 33.017 15.0459 33.0009 17.6156C33.01 20.1798 32.787 22.7248 32.3347 25.2338C32.1235 26.0636 31.4128 26.7963 30.4925 27.0567C29.6779 27.2744 27.5585 27.4525 24.6832 27.5623C23.2231 27.6181 21.6557 27.6541 20.0879 27.674C19.5388 27.681 19.0291 27.6855 18.5719 27.688C18.2983 27.6895 18.1035 27.69 18.0009 27.69C17.8982 27.69 17.7035 27.6895 17.4299 27.688C16.9727 27.6855 16.4629 27.681 15.9138 27.674C14.346 27.6541 12.7786 27.6181 11.3185 27.5623C8.4432 27.4525 6.32382 27.2744 5.48841 27.0509C4.59589 26.8067 3.88932 26.1074 3.63351 25.2092C3.20761 22.8066 2.98459 20.2226 3.00084 17.6344C2.98816 15.0488 3.21116 12.4843 3.66706 9.95621C3.8782 9.12643 4.58893 8.39371 5.50922 8.13335C6.32382 7.91565 8.4432 7.73751 11.3185 7.62765C12.7786 7.57187 14.346 7.53594 15.9138 7.51597C16.4629 7.50898 16.9727 7.50448 17.4299 7.50199C17.7035 7.5005 17.8982 7.5 18.0009 7.5C18.1038 7.5 18.2987 7.50045 18.5726 7.50182C19.0301 7.5041 19.5401 7.5082 20.0895 7.51459C21.6584 7.53283 23.2268 7.56566 24.6882 7.61664ZM15.3674 23.8339C14.3674 24.4026 13.1259 23.6804 13.1259 22.53V12.72C13.1259 11.5696 14.3674 10.8474 15.3674 11.4161L23.9924 16.3211C25.0037 16.8962 25.0037 18.3538 23.9924 18.9289L15.3674 23.8339ZM16.1259 15.2986L20.2166 17.625L16.1259 19.9514V15.2986Z" fill="white"/>
</mask>
<g mask="url(#mask0_151_6498)">
<rect width="36" height="36" fill="#606060"/>
</g>
</svg>
