<svg width="36" height="36" viewBox="0 0 36 36" fill="none" xmlns="http://www.w3.org/2000/svg">
<mask id="mask0_151_6516" style="mask-type:alpha" maskUnits="userSpaceOnUse" x="0" y="3" width="36" height="30">
<path fill-rule="evenodd" clip-rule="evenodd" d="M26.25 7.5H31.5C34.05 7.5 36 9.45 36 12V28.5C36 31.05 34.05 33 31.5 33H4.5C1.95 33 0 31.05 0 28.5V12C0 9.45 1.95 7.5 4.5 7.5H9.75L12.3 3.6C12.6 3.3 13.05 3 13.5 3H22.5C22.95 3 23.4 3.3 23.7 3.6L26.25 7.5ZM31.5 30C32.4 30 33 29.4 33 28.5V12C33 11.1 32.4 10.5 31.5 10.5H25.5C25.05 10.5 24.6 10.2 24.15 9.9L21.6 6H14.25L11.7 9.9C11.4 10.2 10.95 10.5 10.5 10.5H4.5C3.6 10.5 3 11.1 3 12V28.5C3 29.4 3.6 30 4.5 30H31.5ZM18 12C13.8 12 10.5 15.3 10.5 19.5C10.5 23.7 13.8 27 18 27C22.2 27 25.5 23.7 25.5 19.5C25.5 15.3 22.2 12 18 12ZM13.5 19.5C13.5 22.05 15.45 24 18 24C20.55 24 22.5 22.05 22.5 19.5C22.5 16.95 20.55 15 18 15C15.45 15 13.5 16.95 13.5 19.5Z" fill="white"/>
</mask>
<g mask="url(#mask0_151_6516)">
<rect width="36" height="36" fill="#606060"/>
</g>
</svg>
