<svg width="97" height="73" viewBox="0 0 97 73" fill="none" xmlns="http://www.w3.org/2000/svg">
<path d="M20.9043 1.5H19.9519L19.5468 2.36204L8.04956 26.8281C8.04936 26.8285 8.04916 26.8289 8.04896 26.8293C5.30717 32.6404 3.50508 37.0669 2.70142 40.0511C1.90185 43.0202 1.5 45.9976 1.5 48.9804C1.5 55.6797 3.6529 61.1869 8.04696 65.3423C12.4163 69.4744 18.005 71.5 24.6823 71.5C31.3596 71.5 36.9483 69.4744 41.3177 65.3423C45.7117 61.1869 47.8646 55.6797 47.8646 48.9804C47.8646 44.4933 46.8854 40.5484 44.8602 37.2091C43.0587 34.1407 40.5886 31.7315 37.4768 29.9931L45.3391 3.42566L45.9089 1.5H43.9007H20.9043ZM68.5397 1.5H67.5872L67.1821 2.36204L55.6849 26.8281C52.9428 32.6398 51.1405 37.0667 50.3368 40.0511C49.5372 43.0202 49.1354 45.9976 49.1354 48.9804C49.1354 55.6797 51.2883 61.1869 55.6823 65.3423C60.0517 69.4744 65.6404 71.5 72.3177 71.5C78.995 71.5 84.5837 69.4744 88.953 65.3423C93.3471 61.1869 95.5 55.6797 95.5 48.9804C95.5 44.4934 94.5209 40.5486 92.4957 37.2093C90.6942 34.1408 88.2241 31.7316 85.1121 29.9931L92.9744 3.42566L93.5443 1.5H91.5361H68.5397Z" stroke="#FF8A00" stroke-width="3"/>
</svg>
