<svg width="30" height="30" viewBox="0 0 30 30" fill="none" xmlns="http://www.w3.org/2000/svg">
<path d="M26.157 0C27.6446 0 28.6364 0.290416 29.1322 0.871248C29.7107 1.3691 30 2.32332 30 3.73391V11.0773C29.9174 13.3176 29.7107 15.475 29.3802 17.5494C29.0496 19.6237 28.5537 21.6152 27.8926 23.5236C27.314 25.432 26.5702 27.2575 25.6612 29L20.7025 27.6309C21.1157 25.2246 21.405 23.0258 21.5702 21.0343C21.8182 18.9599 21.9421 16.5122 21.9421 13.691C19.9587 13.691 18.9669 12.6123 18.9669 10.4549V3.73391C19.0496 2.32332 19.4215 1.3691 20.0826 0.871248C20.7438 0.290416 21.7355 0 23.0578 0H26.157ZM7.19008 0C8.67769 0 9.66942 0.290416 10.1653 0.871248C10.7438 1.3691 11.0331 2.32332 11.0331 3.73391V11.0773C10.9504 13.3176 10.7438 15.475 10.4132 17.5494C10.0826 19.6237 9.58678 21.6152 8.92562 23.5236C8.34711 25.432 7.60331 27.2575 6.69421 29L1.73554 27.6309C2.14876 25.2246 2.43802 23.0258 2.60331 21.0343C2.85124 18.9599 2.97521 16.5122 2.97521 13.691C0.991736 13.691 0 12.6123 0 10.4549V3.73391C0.0826445 2.32332 0.454545 1.3691 1.1157 0.871248C1.77686 0.290416 2.7686 0 4.09091 0H7.19008Z" fill="#E86741"/>
</svg>
