<svg width="38" height="42" viewBox="0 0 38 42" fill="none" xmlns="http://www.w3.org/2000/svg">
<path d="M0.542969 40.7695C0.542969 41.4492 1.0938 42 1.77344 42H9.15625C10.3393 42 11.3935 41.4399 12.0696 40.5715C15.0689 41.519 18.1823 42 21.3315 42H31.3047C33.3401 42 34.9961 40.344 34.9961 38.3086C34.9961 37.8283 34.9028 37.3694 34.7353 36.948C36.3015 36.5212 37.457 35.0866 37.457 33.3867C37.457 32.4421 37.0997 31.5795 36.514 30.9258C37.1001 30.2721 37.457 29.4095 37.457 28.4648C37.457 27.5202 37.0997 26.6576 36.514 26.0039C37.1001 25.3502 37.457 24.4876 37.457 23.543C37.457 21.5076 35.801 19.8516 33.7656 19.8516H27.0304C27.1259 19.6253 27.2246 19.3959 27.3252 19.1626C28.0718 17.4313 28.8438 15.6411 28.8438 13.6992C28.8438 10.2981 26.0928 7.46484 22.6914 7.46484C22.105 7.46484 21.6 7.87885 21.485 8.45403L20.8566 11.5959C20.0312 15.7224 19.1195 16.1896 15.7277 17.9277C14.8311 18.3869 13.7779 18.9268 12.5487 19.6276C11.9828 18.3135 10.6754 17.3906 9.15625 17.3906H1.77344C1.0938 17.3906 0.542969 17.9415 0.542969 18.6211V40.7695ZM16.8496 20.1178C18.6863 19.1767 20.0129 18.4971 21.0517 17.3464C22.114 16.1694 22.7568 14.6432 23.2698 12.0785L23.6719 10.0668C25.2151 10.5186 26.3828 11.9993 26.3828 13.6992C26.3828 15.1328 25.7131 16.686 25.0652 18.1882C24.8303 18.7332 24.5906 19.2905 24.3772 19.8516H22.6914C22.0118 19.8516 21.4609 20.4024 21.4609 21.082C21.4609 21.7617 22.0118 22.3125 22.6914 22.3125H33.7656C34.444 22.3125 34.9961 22.8646 34.9961 23.543C34.9961 24.2213 34.444 24.7734 33.7656 24.7734H31.3047C30.625 24.7734 30.0742 25.3243 30.0742 26.0039C30.0742 26.6835 30.625 27.2344 31.3047 27.2344H33.7656C34.444 27.2344 34.9961 27.7865 34.9961 28.4648C34.9961 29.1432 34.444 29.6953 33.7656 29.6953H31.3047C30.625 29.6953 30.0742 30.2461 30.0742 30.9258C30.0742 31.6054 30.625 32.1562 31.3047 32.1562H33.7656C34.444 32.1562 34.9961 32.7084 34.9961 33.3867C34.9961 34.0651 34.444 34.6172 33.7656 34.6172H31.3047C30.625 34.6172 30.0742 35.168 30.0742 35.8477C30.0742 36.5273 30.625 37.0781 31.3047 37.0781C31.983 37.0781 32.5352 37.6302 32.5352 38.3086C32.5352 38.987 31.983 39.5391 31.3047 39.5391H21.3315C18.4473 39.5391 15.5957 39.1007 12.8477 38.2368V22.3019C14.4341 21.356 15.761 20.6757 16.8496 20.1178ZM3.00391 19.8516H9.15625C9.83461 19.8516 10.3867 20.4037 10.3867 21.082V38.3086C10.3867 38.987 9.83461 39.5391 9.15625 39.5391H3.00391V19.8516Z" fill="#FF8A00"/>
<path d="M7.92578 35.8477C7.92578 36.5273 7.37495 37.0781 6.69531 37.0781C6.01567 37.0781 5.46484 36.5273 5.46484 35.8477C5.46484 35.168 6.01567 34.6172 6.69531 34.6172C7.37495 34.6172 7.92578 35.168 7.92578 35.8477Z" fill="#FF8A00"/>
<path d="M22.6914 1.23047V3.77344C22.6914 4.45308 23.2422 5.00391 23.9219 5.00391C24.6015 5.00391 25.1523 4.45308 25.1523 3.77344V1.23047C25.1523 0.550827 24.6015 0 23.9219 0C23.2422 0 22.6914 0.550827 22.6914 1.23047Z" fill="#FF8A00"/>
<path d="M30.4347 3.26363L28.6944 5.00391C28.2138 5.48456 28.2138 6.26353 28.6944 6.74419C29.1751 7.22452 29.9541 7.22452 30.4347 6.74419L32.1747 5.00391C32.6553 4.52325 32.6553 3.74428 32.1747 3.26363C31.694 2.78329 30.915 2.78329 30.4347 3.26363Z" fill="#FF8A00"/>
<path d="M15.6691 3.26363C15.1884 3.74428 15.1884 4.52325 15.6691 5.00391L17.409 6.74419C17.8897 7.22452 18.6687 7.22452 19.1493 6.74419C19.6297 6.26353 19.6297 5.48456 19.1493 5.00391L17.409 3.26363C16.9287 2.78329 16.1494 2.78329 15.6691 3.26363Z" fill="#FF8A00"/>
</svg>
