<svg width="34" height="34" viewBox="0 0 34 34" fill="none" xmlns="http://www.w3.org/2000/svg">
<mask id="mask0_70_2391" style="mask-type:alpha" maskUnits="userSpaceOnUse" x="2" y="2" width="30" height="30">
<path fill-rule="evenodd" clip-rule="evenodd" d="M24.3666 22.3833L30.7416 28.7583C31.3083 29.3249 31.3083 30.1749 30.7416 30.7416C30.4583 31.0249 30.0333 31.1666 29.7499 31.1666C29.4666 31.1666 29.0416 31.0249 28.7583 30.7416L22.3833 24.3666C20.2583 25.9249 17.7083 26.9166 14.8749 26.9166C8.21659 26.9166 2.83325 21.5333 2.83325 14.8749C2.83325 8.21659 8.21659 2.83325 14.8749 2.83325C21.5333 2.83325 26.9166 8.21659 26.9166 14.8749C26.9166 17.7083 25.9249 20.3999 24.3666 22.3833ZM14.8749 5.66661C9.77495 5.66661 5.66661 9.77495 5.66661 14.8749C5.66661 19.9749 9.77495 24.0833 14.8749 24.0833C17.4249 24.0833 19.6916 23.0916 21.3916 21.3916C23.0916 19.6916 24.0833 17.4249 24.0833 14.8749C24.0833 9.77495 19.9749 5.66661 14.8749 5.66661Z" fill="white"/>
</mask>
<g mask="url(#mask0_70_2391)">
<rect width="34" height="34" fill="#BCBCBC"/>
</g>
</svg>
