<svg width="101" height="100" viewBox="0 0 101 100" fill="none" xmlns="http://www.w3.org/2000/svg">
<path fill-rule="evenodd" clip-rule="evenodd" d="M98.0196 26.0104L97.9611 25.7383C96.5912 20.2654 92.3987 15.9432 86.97 14.4074C83.6927 13.6043 77.5271 13.1311 68.8688 12.8291C64.7375 12.6849 60.3188 12.5925 55.9012 12.5411C54.3559 12.5231 52.9207 12.5116 51.632 12.5052C50.857 12.5013 50.3016 12.5 50.0024 12.5C49.7025 12.5 49.1465 12.5014 48.3708 12.5057C47.0813 12.5127 45.6452 12.5253 44.099 12.545C39.6786 12.6013 35.2569 12.7027 31.1222 12.8607C22.4358 13.1925 16.2567 13.7119 13.0926 14.5581C7.60613 16.1099 3.41361 20.4321 2.04377 25.905C0.628386 33.7011 -0.0353153 41.3337 0.00246091 48.9789C-0.0458729 56.635 0.61787 64.3257 1.98525 71.9063C3.58741 77.6066 7.7554 81.7316 13.0694 83.1856C16.2567 84.0381 22.4358 84.5575 31.1222 84.8893C35.2569 85.0473 39.6786 85.1487 44.099 85.205C45.6452 85.2247 47.0813 85.2373 48.3708 85.2444C49.1465 85.2486 49.7025 85.25 50.0024 85.25C50.3023 85.25 50.8583 85.2486 51.634 85.2444C52.9235 85.2373 54.3596 85.2247 55.9058 85.205C60.3263 85.1487 64.7479 85.0473 68.8826 84.8893C77.569 84.5575 83.7481 84.0381 86.9122 83.1919C92.3987 81.6401 96.5912 77.3179 97.9611 71.845C99.366 64.1054 100.03 56.531 100.002 48.9434C100.051 41.2817 99.3869 33.591 98.0196 26.0104ZM68.5782 21.1573C76.5933 21.4369 82.4941 21.8898 84.8473 22.4644C87.2199 23.1384 89.1699 25.1209 89.8457 27.6407C91.1036 34.667 91.714 41.7941 91.6692 48.9322C91.6946 56.0551 91.0751 63.1245 89.8185 70.094C89.232 72.3988 87.2578 74.4341 84.7014 75.1574C82.4387 75.7621 76.5515 76.2569 68.5644 76.5621C64.5086 76.717 60.1548 76.8168 55.7997 76.8723C54.2745 76.8917 52.8585 76.9042 51.5885 76.9111C50.8285 76.9153 50.2876 76.9167 50.0024 76.9167C49.7172 76.9167 49.1763 76.9153 48.4163 76.9111C47.1463 76.9042 45.7303 76.8917 44.2051 76.8723C39.8501 76.8168 35.4962 76.717 31.4404 76.5621C23.4533 76.2569 17.5662 75.7621 15.2456 75.1415C12.7664 74.463 10.8037 72.5206 10.0931 70.0254C8.91001 63.3518 8.29052 56.1738 8.33566 48.9845C8.30044 41.8022 8.91989 34.6785 10.1863 27.6561C10.7728 25.3512 12.747 23.3159 15.3034 22.5926C17.5662 21.9879 23.4533 21.4931 31.4404 21.1879C35.4962 21.033 39.8501 20.9332 44.2051 20.8777C45.7303 20.8583 47.1463 20.8458 48.4163 20.8389C49.1763 20.8347 49.7172 20.8333 50.0024 20.8333C50.2882 20.8333 50.8298 20.8346 51.5905 20.8384C52.8614 20.8447 54.2782 20.8561 55.8043 20.8739C60.1622 20.9245 64.519 21.0157 68.5782 21.1573ZM42.6872 66.2053C39.9095 67.7849 36.4607 65.7788 36.4607 62.5833V35.3333C36.4607 32.1379 39.9095 30.1317 42.6872 31.7114L66.6455 45.3364C69.4547 46.934 69.4547 50.9827 66.6455 52.5803L42.6872 66.2053ZM44.7941 42.4962L56.1571 48.9583L44.7941 55.4204V42.4962Z" fill="#FF8A00"/>
<mask id="mask0_151_6570" style="mask-type:alpha" maskUnits="userSpaceOnUse" x="0" y="12" width="101" height="74">
<path fill-rule="evenodd" clip-rule="evenodd" d="M98.0196 26.0104L97.9611 25.7383C96.5912 20.2654 92.3987 15.9432 86.97 14.4074C83.6927 13.6043 77.5271 13.1311 68.8688 12.8291C64.7375 12.6849 60.3188 12.5925 55.9012 12.5411C54.3559 12.5231 52.9207 12.5116 51.632 12.5052C50.857 12.5013 50.3016 12.5 50.0024 12.5C49.7025 12.5 49.1465 12.5014 48.3708 12.5057C47.0813 12.5127 45.6452 12.5253 44.099 12.545C39.6786 12.6013 35.2569 12.7027 31.1222 12.8607C22.4358 13.1925 16.2567 13.7119 13.0926 14.5581C7.60613 16.1099 3.41361 20.4321 2.04377 25.905C0.628386 33.7011 -0.0353153 41.3337 0.00246091 48.9789C-0.0458729 56.635 0.61787 64.3257 1.98525 71.9063C3.58741 77.6066 7.7554 81.7316 13.0694 83.1856C16.2567 84.0381 22.4358 84.5575 31.1222 84.8893C35.2569 85.0473 39.6786 85.1487 44.099 85.205C45.6452 85.2247 47.0813 85.2373 48.3708 85.2444C49.1465 85.2486 49.7025 85.25 50.0024 85.25C50.3023 85.25 50.8583 85.2486 51.634 85.2444C52.9235 85.2373 54.3596 85.2247 55.9058 85.205C60.3263 85.1487 64.7479 85.0473 68.8826 84.8893C77.569 84.5575 83.7481 84.0381 86.9122 83.1919C92.3987 81.6401 96.5912 77.3179 97.9611 71.845C99.366 64.1054 100.03 56.531 100.002 48.9434C100.051 41.2817 99.3869 33.591 98.0196 26.0104ZM68.5782 21.1573C76.5933 21.4369 82.4941 21.8898 84.8473 22.4644C87.2199 23.1384 89.1699 25.1209 89.8457 27.6407C91.1036 34.667 91.714 41.7941 91.6692 48.9322C91.6946 56.0551 91.0751 63.1245 89.8185 70.094C89.232 72.3988 87.2578 74.4341 84.7014 75.1574C82.4387 75.7621 76.5515 76.2569 68.5644 76.5621C64.5086 76.717 60.1548 76.8168 55.7997 76.8723C54.2745 76.8917 52.8585 76.9042 51.5885 76.9111C50.8285 76.9153 50.2876 76.9167 50.0024 76.9167C49.7172 76.9167 49.1763 76.9153 48.4163 76.9111C47.1463 76.9042 45.7303 76.8917 44.2051 76.8723C39.8501 76.8168 35.4962 76.717 31.4404 76.5621C23.4533 76.2569 17.5662 75.7621 15.2456 75.1415C12.7664 74.463 10.8037 72.5206 10.0931 70.0254C8.91001 63.3518 8.29052 56.1738 8.33566 48.9845C8.30044 41.8022 8.91989 34.6785 10.1863 27.6561C10.7728 25.3512 12.747 23.3159 15.3034 22.5926C17.5662 21.9879 23.4533 21.4931 31.4404 21.1879C35.4962 21.033 39.8501 20.9332 44.2051 20.8777C45.7303 20.8583 47.1463 20.8458 48.4163 20.8389C49.1763 20.8347 49.7172 20.8333 50.0024 20.8333C50.2882 20.8333 50.8298 20.8346 51.5905 20.8384C52.8614 20.8447 54.2782 20.8561 55.8043 20.8739C60.1622 20.9245 64.519 21.0157 68.5782 21.1573ZM42.6872 66.2053C39.9095 67.7849 36.4607 65.7788 36.4607 62.5833V35.3333C36.4607 32.1379 39.9095 30.1317 42.6872 31.7114L66.6455 45.3364C69.4547 46.934 69.4547 50.9827 66.6455 52.5803L42.6872 66.2053ZM44.7941 42.4962L56.1571 48.9583L44.7941 55.4204V42.4962Z" fill="white"/>
</mask>
<g mask="url(#mask0_151_6570)">
<rect width="100" height="100" fill="#FF8A00"/>
</g>
</svg>
